<svg width="27" height="27" viewBox="0 0 27 27" fill="none" xmlns="http://www.w3.org/2000/svg">
<path d="M5.31526 5.55469H22.9819C24.6486 5.55469 25.4886 6.34135 25.4886 7.94135V19.168C25.4886 20.7547 24.6486 21.5547 22.9819 21.5547H5.31526C3.64859 21.5547 2.80859 20.7547 2.80859 19.168V7.94135C2.80859 6.34135 3.64859 5.55469 5.31526 5.55469ZM14.1419 17.0214L23.1286 9.64802C23.4486 9.38135 23.7019 8.76802 23.3019 8.22135C22.9153 7.67469 22.2086 7.66135 21.7419 7.99469L14.1419 13.1414L6.55526 7.99469C6.08859 7.66135 5.38193 7.67469 4.99526 8.22135C4.59526 8.76802 4.84859 9.38135 5.16859 9.64802L14.1419 17.0214Z" fill="white"/>
</svg>
