<svg width="27" height="28" viewBox="0 0 27 28" fill="none" xmlns="http://www.w3.org/2000/svg">
<path d="M11.4139 12.2605L13.2039 10.6205C13.6933 10.1712 14.0373 9.5859 14.1918 8.9397C14.3462 8.2935 14.304 7.61589 14.0706 6.99385L13.3072 4.95551C13.022 4.19455 12.4575 3.57093 11.7285 3.21172C10.9996 2.85251 10.1611 2.78472 9.3839 3.02218C6.5239 3.89718 4.32556 6.55551 5.00223 9.71218C5.44723 11.7888 6.2989 14.3955 7.91223 17.1688C9.5289 19.9488 11.3756 22.0022 12.9589 23.4455C15.3489 25.6205 18.7656 25.0772 20.9639 23.0272C21.5532 22.4777 21.9107 21.7243 21.9637 20.9203C22.0167 20.1164 21.761 19.3225 21.2489 18.7005L19.8489 17.0005C19.4267 16.4864 18.8602 16.1105 18.2225 15.921C17.5848 15.7315 16.905 15.7371 16.2706 15.9372L13.9572 16.6655C13.3598 16.049 12.8363 15.3649 12.3972 14.6272C11.9735 13.8811 11.6432 13.0857 11.4139 12.2588V12.2605Z" fill="white"/>
</svg>
