<svg width="27" height="28" viewBox="0 0 27 28" fill="none" xmlns="http://www.w3.org/2000/svg">
<path d="M11.2658 17.5564L17.0325 14.2231L11.2658 10.8898V17.5564ZM24.1103 8.85642C24.2547 9.37865 24.3547 10.0786 24.4214 10.9675C24.4992 11.8564 24.5325 12.6231 24.5325 13.2898L24.5992 14.2231C24.5992 16.6564 24.4214 18.4453 24.1103 19.5898C23.8325 20.5898 23.1881 21.2342 22.1881 21.512C21.6658 21.6564 20.7103 21.7564 19.2436 21.8231C17.7992 21.9009 16.477 21.9342 15.2547 21.9342L13.4881 22.0009C8.83251 22.0009 5.93251 21.8231 4.78806 21.512C3.78806 21.2342 3.14362 20.5898 2.86584 19.5898C2.7214 19.0675 2.6214 18.3675 2.55473 17.4786C2.47695 16.5898 2.44362 15.8231 2.44362 15.1564L2.37695 14.2231C2.37695 11.7898 2.55473 10.0009 2.86584 8.85642C3.14362 7.85642 3.78806 7.21198 4.78806 6.9342C5.31029 6.78976 6.26584 6.68976 7.73251 6.62309C9.17695 6.54531 10.4992 6.51198 11.7214 6.51198L13.4881 6.44531C18.1436 6.44531 21.0436 6.62309 22.1881 6.9342C23.1881 7.21198 23.8325 7.85642 24.1103 8.85642Z" fill="white"/>
</svg>
