<svg width="27" height="27" viewBox="0 0 27 27" fill="none" xmlns="http://www.w3.org/2000/svg">
<path d="M14.629 2.44668C15.4398 2.44357 16.2506 2.45172 17.0612 2.47112L17.2768 2.4789C17.5256 2.48779 17.7712 2.4989 18.0679 2.51224C19.2501 2.56779 20.0568 2.75446 20.7645 3.0289C21.4979 3.31112 22.1156 3.69335 22.7334 4.31112C23.2983 4.86624 23.7354 5.53773 24.0145 6.2789C24.289 6.98668 24.4756 7.79446 24.5312 8.97668C24.5445 9.27223 24.5556 9.5189 24.5645 9.76779L24.5712 9.98335C24.5909 10.7936 24.5995 11.604 24.5968 12.4145L24.5979 13.2433V14.6989C24.6006 15.5097 24.5921 16.3205 24.5723 17.1311L24.5656 17.3467C24.5568 17.5956 24.5456 17.8411 24.5323 18.1378C24.4768 19.32 24.2879 20.1267 24.0145 20.8345C23.7364 21.5764 23.2991 22.2485 22.7334 22.8033C22.1778 23.3681 21.506 23.8053 20.7645 24.0845C20.0568 24.3589 19.2501 24.5456 18.0679 24.6011C17.7712 24.6145 17.5256 24.6256 17.2768 24.6345L17.0612 24.6411C16.2506 24.6609 15.4398 24.6694 14.629 24.6667L13.8001 24.6678H12.3456C11.5348 24.6705 10.724 24.662 9.91342 24.6422L9.69786 24.6356C9.4341 24.626 9.17039 24.6149 8.90675 24.6022C7.72453 24.5467 6.91786 24.3578 6.20897 24.0845C5.46751 23.806 4.79591 23.3687 4.2412 22.8033C3.67569 22.2481 3.23811 21.5762 2.95897 20.8345C2.68453 20.1267 2.49786 19.32 2.44231 18.1378C2.42993 17.8741 2.41882 17.6104 2.40897 17.3467L2.40342 17.1311C2.38293 16.3205 2.37367 15.5097 2.37564 14.6989V12.4145C2.37254 11.604 2.38069 10.7936 2.40009 9.98335L2.40786 9.76779C2.41675 9.5189 2.42786 9.27223 2.4412 8.97668C2.49675 7.79335 2.68342 6.98779 2.95786 6.2789C3.23717 5.53737 3.6756 4.86606 4.24231 4.31224C4.79664 3.7464 5.46782 3.30843 6.20897 3.0289C6.91786 2.75446 7.72342 2.56779 8.90675 2.51224L9.69786 2.4789L9.91342 2.47335C10.7236 2.45287 11.5341 2.44361 12.3445 2.44557L14.629 2.44668ZM13.4868 8.00223C12.7506 7.99182 12.0198 8.12782 11.3367 8.40231C10.6536 8.6768 10.0319 9.08432 9.50769 9.60118C8.98347 10.118 8.5672 10.7339 8.28307 11.4131C7.99895 12.0922 7.85263 12.8211 7.85263 13.5572C7.85263 14.2934 7.99895 15.0222 8.28307 15.7014C8.5672 16.3805 8.98347 16.9964 9.50769 17.5133C10.0319 18.0301 10.6536 18.4377 11.3367 18.7122C12.0198 18.9867 12.7506 19.1226 13.4868 19.1122C14.9602 19.1122 16.3733 18.5269 17.4151 17.4851C18.457 16.4432 19.0423 15.0301 19.0423 13.5567C19.0423 12.0833 18.457 10.6702 17.4151 9.62831C16.3733 8.58644 14.9602 8.00223 13.4868 8.00223ZM13.4868 10.2245C13.9295 10.2163 14.3695 10.2965 14.781 10.4602C15.1924 10.624 15.5671 10.8682 15.8832 11.1784C16.1992 11.4886 16.4503 11.8587 16.6217 12.2671C16.7931 12.6754 16.8814 13.1138 16.8815 13.5567C16.8816 13.9995 16.7934 14.438 16.6221 14.8464C16.4508 15.2548 16.1999 15.6249 15.884 15.9353C15.568 16.2456 15.1934 16.4899 14.782 16.6538C14.3706 16.8177 13.9307 16.898 13.4879 16.89C12.6038 16.89 11.756 16.5388 11.1308 15.9137C10.5057 15.2886 10.1545 14.4407 10.1545 13.5567C10.1545 12.6726 10.5057 11.8248 11.1308 11.1997C11.756 10.5745 12.6038 10.2233 13.4879 10.2233L13.4868 10.2245ZM19.3201 6.33557C18.9616 6.34992 18.6226 6.5024 18.3741 6.76109C18.1255 7.01978 17.9867 7.36461 17.9867 7.72335C17.9867 8.08209 18.1255 8.42691 18.3741 8.6856C18.6226 8.94429 18.9616 9.09678 19.3201 9.11112C19.6884 9.11112 20.0417 8.96479 20.3022 8.70433C20.5626 8.44386 20.709 8.09059 20.709 7.72223C20.709 7.35388 20.5626 7.00061 20.3022 6.74014C20.0417 6.47968 19.6884 6.33335 19.3201 6.33335V6.33557Z" fill="white"/>
</svg>
