<svg width="2257" height="501" viewBox="0 0 2257 501" fill="none" xmlns="http://www.w3.org/2000/svg">
<path fill-rule="evenodd" clip-rule="evenodd" d="M11.891 25.3548L11.8703 25.254L11.6036 27.1324L11.6125 27.1827L11.891 25.3548ZM12.5043 31.5409L12.8302 29.4907L12.7769 29.2626L12.4717 31.372L12.5043 31.5409ZM11.6125 37.3952L11.891 35.5672L11.8703 35.4635L11.6036 37.3418L11.6125 37.3952ZM2256.71 80.2031V78.6685C2170.82 92.0332 2061.51 71.3565 1922.54 0.0948256H1919.32C2059.71 72.5238 2170.06 93.6064 2256.71 80.2031ZM2256.71 90.4126V88.8779C2166.84 102.868 2051.34 79.6195 1903.02 0.0948256H1899.96C2049.61 80.7453 2166.11 104.429 2256.71 90.4126ZM2256.71 100.625V99.0903C2163.98 113.522 2043.97 88.315 1888.77 2.5509C1887.25 1.71246 1885.76 0.92438 1884.25 0.0948256H1881.19C1883.48 1.34805 1885.76 2.55683 1888.07 3.83078C2043.47 89.7075 2163.73 115.009 2256.71 100.625ZM2256.71 110.837V109.303C2163.98 123.734 2043.97 98.5274 1888.77 12.7633C1880.87 8.39333 1873.04 4.20112 1865.26 0.0948256H1862.11C1870.7 4.60701 1879.33 9.214 1888.07 14.0432C2043.47 99.9199 2163.73 125.221 2256.71 110.837ZM2256.71 121.05V119.515C2163.98 133.943 2043.97 108.74 1888.77 22.9757C1874.13 14.8816 1859.73 7.29714 1845.51 0.0948256H1842.26C1857.3 7.67044 1872.55 15.6756 1888.07 24.2526C2043.47 110.132 2163.73 135.434 2256.71 121.05ZM2256.71 131.262V129.728C2163.98 144.156 2043.97 118.952 1888.77 33.1852C1866.99 21.1477 1845.72 10.1769 1824.87 0.0948256H1821.51C1843.2 10.5146 1865.36 21.918 1888.07 34.4651C2043.47 120.345 2163.73 145.646 2256.71 131.262ZM2256.71 141.472V139.937C2163.98 154.368 2043.97 129.162 1888.77 43.3976C1859.4 27.162 1830.92 12.8048 1803.22 0.0948256H1799.74C1828.3 13.1011 1857.71 27.8997 1888.07 44.6775C2043.47 130.557 2163.73 155.856 2256.71 141.472ZM2256.71 151.681V150.149C2163.98 164.578 2043.97 139.374 1888.77 53.607C1851.26 32.88 1815.19 15.1275 1780.37 0.0948256H1776.6C1812.37 15.4001 1849.45 33.5466 1888.07 54.8899C2043.47 140.767 2163.73 166.068 2256.71 151.681ZM2256.71 161.894V160.359C2163.98 174.787 2043.97 149.584 1888.77 63.8165C1842.34 38.1655 1798.14 17.1185 1755.78 0.0948256H1751.83C1795.18 17.3288 1840.45 38.7847 1888.07 65.1023C2043.47 150.979 2163.73 176.28 2256.71 161.894ZM2256.71 172.106V170.574C2163.98 185.003 2043.97 159.799 1888.77 74.0319C1832.62 43.0035 1779.7 18.6502 1729.39 0.0948256H1725.05C1776.44 18.7894 1830.55 43.5279 1888.07 75.3117C2043.47 161.188 2163.73 186.49 2256.71 172.106ZM2256.71 182.318V180.787C2163.98 195.215 2043.97 170.011 1888.77 84.2443C1821.62 47.1335 1759.09 19.6012 1700.13 0.0948256H1695.49C1755.59 19.6397 1819.42 47.5868 1888.07 85.5241C2043.47 171.401 2163.73 196.702 2256.71 182.318ZM2256.71 192.531V190.996C2163.98 205.427 2043.97 180.221 1888.77 94.4567C1808.93 50.3333 1735.61 19.7316 1667.08 0.0948256H1661.72C1731.58 19.6279 1806.41 50.6117 1888.07 95.7366C2043.47 181.613 2163.73 206.915 2256.71 192.531ZM2256.71 202.74V201.209C2163.98 215.637 2043.97 190.433 1888.77 104.666C1793.44 51.9805 1707.39 18.5554 1627.71 0.0948256H1620.94C1702.31 18.185 1790.3 51.9183 1888.07 105.949C2043.47 191.826 2163.73 217.124 2256.71 202.74ZM2256.71 212.953V211.418C2163.98 225.849 2043.97 200.646 1888.77 114.879C1772.02 50.3569 1669.19 14.7068 1574.93 0.0948256H1564.71C1661.55 13.658 1767.36 49.4504 1888.07 116.161C2043.47 202.035 2163.73 227.337 2256.71 212.953ZM1942.93 0.0948256C2072.26 63.1202 2175.07 81.1631 2256.71 68.4561V69.9878C2174.28 82.7422 2070.4 64.2698 1939.63 0.0948256H1942.93ZM19.2859 0.0948256C17.5498 9.68507 15.8847 19.4709 14.3175 29.4196C46.8716 168.352 150.767 270.464 411.502 220.001C633.675 177 805.867 91.0348 962.756 12.7011L988.037 0.0948256H991.323C982.067 4.69885 972.767 9.34436 963.411 14.0136C806.438 92.3857 634.155 178.396 411.778 221.438C152.136 271.691 47.3545 171.131 13.7219 33.2385L13.3783 35.505C44.8421 176.529 148.196 281.175 411.505 230.213C633.678 187.213 805.87 101.247 962.759 22.9165C978.18 15.2164 993.447 7.59933 1008.61 0.0948256H1011.91C995.882 8.02004 979.733 16.0786 963.414 24.226C806.439 102.598 634.155 188.608 411.778 231.65C149.645 282.386 45.3606 179.397 12.7739 39.472L12.4687 41.5814C42.8304 184.691 145.624 291.885 411.505 240.426C633.678 197.425 805.87 111.46 962.759 33.1259C985.225 21.9092 1007.38 10.8494 1029.32 0.0948256H1032.66C1009.84 11.2612 986.796 22.7624 963.411 34.4384C806.438 112.811 634.155 198.821 411.778 241.863C147.15 293.082 43.3933 187.633 11.8673 45.6789L11.6006 47.5572C40.8306 192.777 143.008 302.601 411.502 250.638C633.675 207.638 805.867 121.669 962.756 43.3413C992.413 28.5337 1021.51 14.0136 1050.31 0.0948256H1053.67C1023.99 14.4076 993.995 29.3781 963.411 44.6478C806.438 123.02 634.155 209.033 411.778 252.072C144.679 303.771 41.4587 195.867 10.9933 51.9064L10.7682 53.5389L10.9815 54.6825C39.3789 201.428 141.109 313.184 411.505 260.848C633.678 217.847 805.87 131.878 962.759 53.5507C999.745 35.0843 1035.88 17.0503 1071.62 0.0948256H1075.06C1038.41 17.4266 1001.36 35.9138 963.414 54.8603C806.439 133.232 634.155 219.242 411.778 262.284C142.17 314.466 39.5448 204.029 10.1667 58.0422L9.9771 59.4672C10.303 61.2774 10.6319 63.0906 10.9815 64.8949C39.3789 211.64 141.109 323.393 411.505 271.06C633.678 228.059 805.87 142.091 962.759 63.7602C1007.27 41.54 1050.55 19.936 1093.39 0.0948256H1096.9C1053.12 20.2886 1008.91 42.3577 963.414 65.0727C806.439 143.445 634.155 229.455 411.778 272.497C140.268 325.046 38.0901 212.686 9.54159 65.1675L9.3668 64.2164L9.22163 65.36C9.77566 68.622 10.3534 71.875 10.9785 75.1043C39.3759 221.85 141.106 333.605 411.502 281.269C633.675 238.269 805.867 152.3 962.756 73.9696C1015.04 47.8713 1065.62 22.635 1115.79 0.0948256H1119.36C1068.23 22.952 1016.71 48.6741 963.411 75.2851C806.438 153.654 634.155 239.667 411.778 282.709C140.268 335.259 38.0901 222.898 9.54159 75.3799C9.21569 73.703 8.91349 72.0143 8.60833 70.3285L8.49872 71.2558C9.2542 75.9754 10.0808 80.6653 10.9815 85.3197C39.3789 232.065 141.109 343.818 411.505 291.485C633.678 248.484 805.87 162.519 962.759 84.185C1023.09 54.0662 1081.16 25.0881 1138.95 0.0948256H1142.66C1083.87 25.3725 1024.81 54.8425 963.411 85.4945C806.438 163.867 634.155 249.88 411.778 292.922C140.268 345.471 38.0901 233.108 9.54159 85.5923C8.95498 82.5585 8.40689 79.504 7.88249 76.4405L7.82025 77.0182C8.75646 83.2399 9.79934 89.4201 10.9815 95.5321C39.3789 242.277 141.109 354.03 411.505 301.697C633.678 258.697 805.87 172.731 962.759 94.3974C1031.5 60.0776 1097.31 27.2361 1163.1 0.0948256H1166.98C1100.11 27.4731 1033.28 60.8242 963.411 95.7069C806.438 174.079 634.155 260.092 411.778 303.131C140.268 355.681 38.0901 243.317 9.54159 95.8017C8.69426 91.4199 7.91802 87.0025 7.19809 82.5615L7.17143 82.8103C8.25874 90.5341 9.51788 98.1867 10.9815 105.742C39.3789 252.484 141.109 364.243 411.505 311.907C633.678 268.906 805.87 182.941 962.759 104.61C1040.37 65.8637 1114.24 28.9959 1188.57 0.0948256H1192.68C1117.18 29.1618 1042.23 66.5718 963.411 105.919C806.438 184.292 634.155 270.302 411.778 313.344C140.268 365.893 38.0901 253.53 9.54159 106.014C8.53131 100.782 7.61582 95.5025 6.78627 90.1904C7.95653 98.8741 9.34012 107.475 10.9815 115.954C39.3789 262.696 141.109 374.452 411.505 322.119C633.678 279.119 805.87 193.153 962.759 114.819C1049.84 71.3417 1132.22 30.2343 1215.82 0.0948256H1220.21C1135.33 30.3173 1051.8 72.0054 963.411 116.129C806.438 194.501 634.155 280.514 411.778 323.556C140.268 376.105 38.0901 263.742 9.54159 116.227C8.53131 110.994 7.61582 105.715 6.78627 100.403C7.95061 109.089 9.34012 117.687 10.9815 126.166C39.3789 272.909 141.109 384.665 411.505 332.332C633.678 289.331 805.87 203.365 962.759 125.035C1060.14 76.4139 1151.63 30.7587 1245.54 0.0948256H1250.3C1154.95 30.7202 1062.21 77.0153 963.411 126.341C806.438 204.713 634.155 290.726 411.778 333.768C140.268 386.318 38.0901 273.955 9.54159 126.439C8.53131 121.207 7.61286 115.93 6.78627 110.612C7.95357 119.302 9.34012 127.9 10.9815 136.379C39.3789 283.121 141.109 394.877 411.505 342.544C633.678 299.543 805.87 213.578 962.759 135.247C1071.62 80.8905 1173.13 30.2254 1278.88 0.0948256H1284.42C1176.91 29.9914 1073.96 81.3645 963.414 136.554C806.439 214.926 634.158 300.936 411.778 343.978C140.268 396.527 38.0901 284.167 9.54159 136.648C8.53131 131.416 7.61582 126.137 6.78627 120.822C7.95061 129.511 9.34012 138.109 10.9815 146.588C39.3789 293.331 141.109 405.086 411.505 352.753C633.678 309.753 805.87 223.787 962.759 145.454C1085.09 84.3776 1198.15 27.9501 1318.35 0.0948256H1325.16C1202.64 27.3457 1087.84 84.6442 963.411 146.766C806.438 225.138 634.155 311.148 411.778 354.19C140.268 406.74 38.0901 294.379 9.54159 146.861C8.53131 141.629 7.61286 136.349 6.78627 131.034C7.95061 139.724 9.34012 148.321 10.9815 156.801C39.3789 303.543 141.109 415.299 411.505 362.966C633.678 319.965 805.87 234 962.759 155.669C1102.76 85.773 1230.59 21.9595 1370.9 0.0948256H1381.24C1237.09 20.3537 1106.62 85.4768 963.411 156.975C806.436 235.348 634.155 321.358 411.775 364.4C140.265 416.949 38.0872 304.589 9.53863 157.073C8.52835 151.841 7.61286 146.562 6.7833 141.247C7.95061 149.936 9.33716 158.534 10.9785 167.013C39.3759 313.755 141.106 425.511 411.502 373.178C633.675 330.178 805.867 244.209 962.756 165.881C1251.22 21.8647 1488.03 -96.3616 1888.77 125.094C2043.97 210.855 2163.98 236.062 2256.71 221.63V223.165C2163.73 237.549 2043.47 212.248 1888.07 126.368C1488 -94.7203 1251.5 23.3579 963.411 167.188C806.436 245.56 634.155 331.57 411.775 374.612C140.265 427.161 38.0872 314.801 9.53863 167.283C8.52835 162.051 7.6099 156.771 6.7833 151.456C7.95061 160.143 9.33716 168.743 10.9785 177.22C39.3759 323.965 141.106 435.718 411.502 383.385C633.675 340.384 805.867 254.416 962.756 176.085C1251.22 32.0682 1488.03 -86.1611 1888.77 135.297C2043.97 221.067 2163.98 246.274 2256.71 231.843V233.377C2163.73 247.761 2043.47 222.46 1888.07 136.58C1488 -84.5049 1251.5 33.5703 963.411 177.4C806.438 255.772 634.155 341.782 411.778 384.825C140.268 437.374 38.0901 325.014 9.54159 177.495C8.53131 172.263 7.61582 166.983 6.78627 161.668C7.95357 170.355 9.34012 178.956 10.9815 187.432C39.3789 334.177 141.109 445.933 411.505 393.597C633.678 350.596 805.87 264.628 962.759 186.297C1251.22 42.2836 1488.04 -75.9487 1888.77 145.513C2043.97 231.28 2163.98 256.484 2256.71 242.055V243.59C2163.73 257.974 2043.47 232.672 1888.07 146.793C1488 -74.2955 1251.5 43.7827 963.411 187.613C806.436 265.985 634.155 351.995 411.775 395.037C140.265 447.586 38.0872 335.226 9.53863 187.708C8.52835 182.475 7.6099 177.196 6.7833 171.881C7.95357 180.567 9.33716 189.168 10.9785 197.644C39.3759 344.39 141.106 456.143 411.502 403.809C633.675 360.809 805.867 274.84 962.756 196.51C1251.22 52.496 1488.03 -65.7333 1888.77 155.722C2043.97 241.492 2163.98 266.696 2256.71 252.268V253.802C2163.73 268.186 2043.47 242.885 1888.07 157.005C1488 -64.0801 1251.5 53.9952 963.411 197.825C806.436 276.194 634.155 362.207 411.775 405.249C140.265 457.799 38.0872 345.438 9.53863 197.92C8.52835 192.691 7.61286 187.408 6.7833 182.096C7.95061 190.783 9.33716 199.381 10.9785 207.86C39.3759 354.605 141.106 466.358 411.502 414.025C633.675 371.024 805.867 285.059 962.756 206.728C1251.22 62.7114 1488.03 -55.5179 1888.77 165.941C2043.97 251.702 2163.98 276.908 2256.71 262.477V264.009C2163.73 278.396 2043.47 253.094 1888.07 167.215C1488 -53.8736 1251.5 64.2046 963.411 208.032C806.436 286.404 634.155 372.417 411.775 415.459C140.265 468.008 38.0872 355.645 9.53863 208.129C8.52835 202.9 7.6099 197.621 6.7833 192.306C7.95061 200.992 9.33716 209.59 10.9785 218.069C39.3759 364.814 141.106 476.57 411.502 424.234C633.675 381.237 805.867 295.268 962.756 216.937C1251.22 72.9238 1488.03 -45.3085 1888.77 176.15C2043.97 261.914 2163.98 287.121 2256.71 272.689V274.224C2163.73 288.611 2043.47 263.307 1888.07 177.43C1488 -43.6582 1251.5 74.42 963.411 218.247C806.436 296.619 634.155 382.632 411.775 425.674C140.265 478.223 38.0872 365.86 9.53863 218.345C8.52835 213.116 7.61286 207.833 6.7833 202.521C7.95357 211.208 9.33716 219.805 10.9785 228.285C39.3759 375.027 141.106 486.783 411.502 434.45C633.675 391.449 805.867 305.484 962.756 227.15C1251.22 83.1362 1488.03 -35.0931 1888.77 186.362C2043.97 272.13 2163.98 297.333 2256.7 282.905V284.437C2163.72 298.82 2043.46 273.519 1888.07 187.642C1488 -33.4429 1251.49 84.6324 963.408 228.459C806.433 306.832 634.152 392.845 411.772 435.887C140.262 488.436 38.0842 376.073 9.53566 228.557C8.52538 223.325 7.60993 218.046 6.78038 212.733C7.95064 221.42 9.33419 230.018 10.9755 238.497C39.373 385.239 141.103 496.995 411.499 444.662C633.672 401.662 805.864 315.696 962.753 237.365C1251.22 93.3486 1488.03 -24.8807 1888.77 196.578C2043.96 282.345 2163.98 307.549 2256.7 293.12V294.652C2163.72 309.036 2043.46 283.734 1888.06 197.858C1487.99 -23.2305 1251.49 94.8478 963.405 238.675C806.43 317.047 634.149 403.06 411.769 446.102C140.259 498.651 38.0812 386.288 9.53269 238.773C8.52242 233.54 7.60696 228.261 6.77741 222.946C7.94471 231.632 9.33123 240.23 10.9726 248.709C39.37 395.452 141.1 507.211 411.496 454.875C633.669 411.874 805.861 325.908 962.75 247.578C1251.21 103.564 1488.03 -14.6653 1888.76 206.79C2043.96 292.557 2163.97 317.761 2256.7 303.33V304.864C2163.72 319.248 2043.46 293.947 1888.06 208.07C1487.99 -13.0181 1251.49 105.06 963.402 248.887C806.427 327.259 634.146 413.272 411.766 456.314C140.256 508.864 38.0783 396.501 9.52973 248.985C8.51945 243.753 7.604 238.473 6.77444 233.158C7.94175 241.848 9.32826 250.446 10.9696 258.925C39.367 405.667 141.097 517.423 411.493 465.09C633.666 422.089 805.858 336.124 962.747 257.79C1251.21 113.773 1488.02 -4.4529 1888.76 217.003C2043.96 302.77 2163.97 327.973 2256.7 313.545V315.077C2163.71 329.461 2043.46 304.159 1888.06 218.283C1488 -2.81157 1251.5 115.267 963.411 259.094C806.436 337.466 634.155 423.476 411.775 466.518C140.265 519.067 38.0872 406.707 9.53863 259.188C8.52835 253.956 7.6099 248.68 6.7833 243.362C7.95061 252.051 9.33716 260.649 10.9785 269.128C39.3759 415.871 141.106 527.626 411.502 475.293C633.675 432.293 805.867 346.327 962.756 267.997C1251.22 123.98 1488.03 5.75063 1888.77 227.209C2043.97 312.976 2163.98 338.18 2256.7 323.751V325.286C2163.72 339.67 2043.46 314.369 1888.07 228.492C1488 7.4038 1251.49 125.479 963.408 269.309C806.433 347.681 634.152 433.691 411.772 476.733C140.262 529.283 38.0842 416.922 9.53566 269.404C8.52538 264.172 7.61289 258.892 6.78038 253.577C7.94768 262.267 9.33419 270.864 10.9755 279.344C39.373 426.086 141.103 537.842 411.499 485.509C633.672 442.508 805.864 356.543 962.753 278.212C1251.22 134.195 1488.03 15.969 1888.77 237.425C2043.96 323.192 2163.98 348.395 2256.7 333.964V335.499C2163.72 349.882 2043.46 324.581 1888.06 238.704C1487.99 17.6162 1251.49 135.691 963.405 279.521C806.43 357.894 634.149 443.904 411.769 486.946C140.259 539.495 38.0812 427.135 9.53269 279.616C2.73627 244.505 0.126147 207.404 0.395752 170.065C0.37205 166.663 0.375013 163.256 0.395752 159.852C0.37205 156.451 0.37205 153.044 0.395752 149.64C0.375013 146.239 0.37205 142.837 0.395752 139.427C0.37205 136.026 0.375013 132.622 0.395752 129.215C0.37205 125.814 0.375013 122.41 0.395752 119.003C0.375013 115.601 0.37205 112.197 0.395752 108.79C0.37205 105.389 0.375013 101.985 0.395752 98.5778C0.37205 95.1766 0.375013 91.7725 0.395752 88.3654C0.37205 84.9642 0.37205 81.5601 0.395752 78.153C0.37205 74.7518 0.37205 71.3476 0.395752 67.9435C0.37205 64.5423 0.37205 61.1352 0.395752 57.7311C0.37205 54.3299 0.375013 50.9228 0.395752 47.5187C0.37205 44.1175 0.37205 40.7104 0.395752 37.3063C0.37205 33.9051 0.37205 30.498 0.395752 27.0939C0.37205 23.6927 0.37205 20.2886 0.395752 16.8815C0.37205 13.4803 0.37205 10.0761 0.395752 6.66905C0.380938 4.47962 0.374999 2.28426 0.380924 0.0918629H12.5576C12.1606 2.76421 11.7755 5.44842 11.3962 8.14151C11.7962 5.44545 12.208 2.76125 12.6258 0.0918629H14.1101C13.239 5.65581 12.3976 11.2642 11.5948 16.917L11.6036 16.9674C12.4598 11.2909 13.3457 5.66469 14.2671 0.0918629H15.7484C14.6048 7.02753 13.5027 14.058 12.4569 21.1537L12.4924 21.3255C13.6094 14.1587 14.7737 7.07494 15.9825 0.0889002H17.4698C16.0388 8.36075 14.6641 16.7689 13.3694 25.2866L13.4375 25.5977C14.8241 16.9555 16.2817 8.44666 17.7957 0.0859375H19.2859V0.0948256Z" fill="#3B3939"/>
</svg>
