<svg width="1918" height="1190" viewBox="0 0 1918 1190" fill="none" xmlns="http://www.w3.org/2000/svg">
<path d="M994.689 1086.97V1025.45L921.235 991.953V1057.81L852.823 1089.02V1024.31L780.63 1057.23L710.958 1025.47V965.108C713.075 964.669 714.638 963.156 714.638 961.344C714.638 960.985 714.562 960.647 714.436 960.328L781.235 929.858L781.865 929.579V862.586L709.697 895.505L638.765 863.143L567.832 895.485L498.159 863.701V800.152L570.353 767.233L498.159 734.313V668.455L425.336 701.673L424.706 701.952V765.5L359.798 735.887C359.898 735.568 359.999 735.229 359.999 734.871C359.999 733.059 358.436 731.545 356.319 731.107V606.041L426.622 573.978L427.252 573.7V506.706L354.428 539.924L353.798 540.203V604.906L284.126 636.69L215.714 605.484L284.756 573.998L285.386 573.719V506.726L212.563 539.944L211.933 540.222V668.475L147.024 638.861C147.125 638.543 147.226 638.204 147.226 637.845C147.226 636.033 145.663 634.52 143.546 634.082V572.564L73.949 540.8L142.361 509.593L143.621 510.171V509.016L144.882 508.438L143.621 507.861V443.157L76.1924 412.408C76.2933 412.09 76.3941 411.751 76.3941 411.393C76.3941 409.242 74.1759 407.489 71.4535 407.489C68.7311 407.489 66.5129 409.242 66.5129 411.393C66.5129 413.205 68.0758 414.719 70.1932 415.157V475.519L-2 508.438L68.9328 540.78L-0.109467 572.266L-0.739645 572.544V637.248L-2 637.826L-0.739645 638.403V703.107L68.8824 734.871L-0.185088 766.376L-0.815266 766.655V833.649L72.0081 800.431L72.6382 800.152V736.584L72.6887 736.604V670.745L138.832 640.574C139.437 641.052 140.218 641.41 141.076 641.589V703.107L210.748 734.871L141.731 766.376L141.101 766.655V831.379L75.0077 861.53C74.1003 860.813 72.8651 860.375 71.5039 860.375C68.7815 860.375 66.5633 862.128 66.5633 864.278C66.5633 866.091 68.1262 867.604 70.2436 868.042V993.028L-0.185088 1025.15L-0.815266 1025.43V1092.42L-0.714438 1092.36V1155.97L70.2184 1188.31V1189.47L71.4787 1188.89L72.7391 1189.47V1188.31L143.042 1156.25L143.672 1155.97V1088.98L75.0077 1120.3C74.1003 1119.59 72.8651 1119.15 71.5039 1119.15C70.1175 1119.15 68.8824 1119.59 68.0001 1120.3L3.04142 1090.67L70.2436 1060.02V1060.08L142.437 1027.16L214.63 1060.08V994.203L284.857 962.16L285.487 961.881V900.364C287.604 899.926 289.167 898.413 289.167 896.6C289.167 894.449 286.949 892.697 284.227 892.697C281.504 892.697 279.286 894.449 279.286 896.6C279.286 896.959 279.362 897.297 279.488 897.616L212.689 928.086L212.059 928.365V991.893L143.722 960.726V832.454L213.319 800.71L285.512 833.629V767.79L351.656 737.619C352.261 738.097 353.042 738.456 353.899 738.635V800.152L421.328 830.901C421.227 831.219 421.126 831.558 421.126 831.917C421.126 832.275 421.202 832.614 421.328 832.932L354.529 863.402L353.899 863.681V993.008L288.159 1023C287.251 1022 285.789 1021.35 284.126 1021.35C281.403 1021.35 279.185 1023.1 279.185 1025.25C279.185 1027.06 280.748 1028.58 282.865 1029.01V1092.4L353.798 1060.06V1123.61L427.252 1157.11V1090.11L357.655 1058.37L426.092 1027.14L492.261 1057.31C492.16 1057.63 492.059 1057.97 492.059 1058.33C492.059 1060.48 494.277 1062.23 497 1062.23C499.722 1062.23 501.94 1060.48 501.94 1058.33C501.94 1056.52 500.378 1055 498.26 1054.57V929.52L567.933 897.735L636.345 928.942L567.302 960.428L566.672 960.706V1025.41L565.412 1025.99L566.672 1026.57V1090.11L496.37 1122.18L495.74 1122.46V1189.45L568.563 1156.23L569.193 1155.95V1092.4L637.605 1123.61V1124.77L638.865 1124.19L711.059 1157.11V1094.45C711.916 1094.28 712.697 1093.92 713.302 1093.44L779.445 1123.61V1189.45L850.378 1157.11V1157.13L923.202 1123.91L923.832 1123.63V1060.08L988.74 1089.7C988.639 1090.01 988.538 1090.35 988.538 1090.71C988.538 1092.86 990.757 1094.61 993.479 1094.61C996.201 1094.61 998.419 1092.86 998.419 1090.71C998.369 1088.92 996.806 1087.41 994.689 1086.97ZM214.529 541.358L282.941 510.151V572.544L214.529 603.751V541.358ZM70.1175 799.017L1.70544 830.224V767.83L70.1175 736.624V799.017ZM141.151 1092.44V1154.84L72.7391 1186.04V1126.84C74.8565 1126.4 76.4193 1124.89 76.4193 1123.07C76.4193 1122.71 76.3437 1122.38 76.2177 1122.06L141.151 1092.44ZM70.2184 1126.84V1186.04L1.83148 1154.84V1092.44L66.7398 1122.06C66.6389 1122.38 66.5381 1122.71 66.5381 1123.07C66.5381 1124.89 68.101 1126.38 70.2184 1126.84ZM850.328 1090.13L781.916 1121.34V1058.95L850.328 1027.74V1090.13ZM708.462 1086.97C707.605 1087.15 706.824 1087.48 706.219 1087.98L641.336 1058.39L708.487 1027.76V1086.97H708.462ZM640.075 993.108V930.715L704.984 960.328C704.883 960.647 704.782 960.985 704.782 961.344C704.782 963.156 706.345 964.669 708.462 965.108V1024.31L640.075 993.108ZM708.462 957.56C707.605 957.739 706.824 958.098 706.219 958.576L641.336 928.982L708.487 898.353V957.56H708.462ZM638.815 994.841L707.227 1026.05L676.147 1040.23L638.815 1057.25L570.403 1026.05L601.483 1011.87L638.815 994.841ZM640.075 1060.1L704.984 1089.72C704.883 1090.03 704.782 1090.37 704.782 1090.73C704.782 1091.09 704.858 1091.43 704.984 1091.75L640.075 1121.36V1060.1ZM779.395 928.404L713.252 958.576C712.647 958.098 711.865 957.739 711.008 957.56V897.198L779.42 865.991V928.404H779.395ZM427.302 828.172V768.965L495.714 800.172V862.566L430.806 832.952C430.907 832.633 431.008 832.295 431.008 831.936C430.982 830.124 429.42 828.611 427.302 828.172ZM427.302 835.7C428.159 835.521 428.941 835.163 429.546 834.685L494.429 864.278L427.302 894.907V835.7ZM496.975 798.44L428.563 767.233L462.113 751.938L496.975 736.046L565.387 767.253L496.975 798.44ZM427.302 703.107L495.714 671.9V734.294L427.302 765.5V703.107ZM356.369 541.358L424.781 510.151V572.544L356.369 603.751V541.358ZM353.849 669.61L331.465 679.826L285.437 700.817V638.423L353.849 607.216V669.61ZM282.941 765.5L248.735 749.907L214.529 734.313V671.92L248.735 687.513L282.941 703.107V765.5ZM214.529 607.216L282.941 638.423V700.817L248.735 685.223L214.529 669.63V607.216ZM141.101 634.082C140.244 634.261 139.462 634.599 138.857 635.097L72.7139 604.926V542.533L141.126 573.739V634.082H141.101ZM141.101 444.312V506.706L72.6887 475.499V415.137C73.5457 414.958 74.3271 414.619 74.9321 414.121L141.101 444.312ZM71.4283 477.232L139.84 508.438L72.6887 539.067L71.4283 539.645L70.1679 539.067L3.01621 508.438L71.4283 477.232ZM1.75586 573.719L70.1679 542.513V604.906L1.75586 636.113V573.719ZM1.75586 639.558L70.1679 670.765V733.158L1.75586 701.952V639.558ZM71.4283 669.052L3.01621 637.845L34.0966 623.666L71.4283 606.639L137.597 636.81C137.496 637.129 137.395 637.467 137.395 637.826C137.395 638.184 137.471 638.523 137.597 638.841L71.4283 669.052ZM143.621 641.609C144.478 641.43 145.26 641.092 145.865 640.594L212.008 670.765V733.158L143.596 701.952V641.609H143.621ZM143.621 767.81L212.034 736.604V798.997L143.621 830.204V767.81ZM72.7391 868.042C74.8565 867.604 76.4193 866.091 76.4193 864.278C76.4193 863.92 76.3437 863.581 76.2177 863.263L141.126 833.649V896.043L72.7139 927.249V868.042H72.7391ZM141.151 960.766L72.7391 991.973V929.579L141.151 898.373V960.766ZM70.1175 1057.79L1.70544 1089V1026.6L70.1175 995.398V1057.79ZM72.7391 994.263L141.151 963.056V1025.45L72.7391 1056.66V994.263ZM214.529 929.559L280.672 899.388C281.277 899.866 282.059 900.225 282.916 900.404V960.766L214.504 991.973V929.559H214.529ZM212.059 995.378V1056.66L143.647 1025.45V963.056L211.983 994.223V995.398L212.059 995.378ZM282.941 830.204L214.529 798.997V736.604L248.735 752.197L282.941 767.79V830.204ZM285.462 765.52V703.107L324.558 685.283L353.874 671.92V731.127C351.757 731.565 350.194 733.079 350.194 734.891C350.194 735.249 350.269 735.588 350.395 735.907L285.462 765.52ZM356.369 799.017V738.655C357.226 738.476 358.008 738.137 358.613 737.639L424.756 767.81V828.172C423.899 828.352 423.118 828.69 422.513 829.188L356.369 799.017ZM356.369 864.856L422.513 834.685C423.118 835.163 423.899 835.521 424.756 835.7V896.062L423.496 896.64L356.344 927.269V864.856H356.369ZM356.369 994.263L424.781 963.056V1025.45L356.369 1056.66V994.263ZM424.781 960.766L356.369 991.973V929.579L424.781 898.373V960.766ZM285.336 1089V1029.07C287.453 1028.64 289.016 1027.12 289.016 1025.31C289.016 1025.19 288.991 1025.07 288.966 1024.95L353.723 995.418V1057.81L285.336 1089ZM424.681 1153.68L356.269 1122.48V1060.08L424.681 1091.29V1153.68ZM495.714 1054.61C494.857 1054.78 494.076 1055.12 493.471 1055.62L427.327 1025.45V963.056L495.74 994.263V1054.61H495.714ZM427.302 960.766V898.373L495.714 929.579V991.973L427.302 960.766ZM496.975 927.827L428.563 896.62L496.949 865.413L498.21 865.991L565.362 896.62L496.975 927.827ZM638.815 865.433L707.227 896.64L640.075 927.269L638.815 927.847L637.555 927.269L570.403 896.64L638.815 865.433ZM569.143 961.901L637.555 930.695V993.088L569.143 1024.29V961.901ZM566.622 1154.86L498.21 1186.06V1123.67L566.622 1092.46V1154.86ZM569.143 1090.15V1027.76L637.555 1058.97V1121.36L569.143 1090.15ZM641.336 1123.09L706.219 1093.5C706.824 1093.98 707.605 1094.34 708.462 1094.51V1153.72L641.336 1123.09ZM710.983 1086.97V1027.76L779.395 1058.97V1121.36L714.487 1091.75C714.588 1091.43 714.688 1091.09 714.688 1090.73C714.688 1088.92 713.1 1087.41 710.983 1086.97ZM781.916 1186.04V1123.67L850.328 1092.46V1154.86L781.916 1186.04ZM921.235 1122.52L852.823 1153.72V1091.33L921.235 1060.12V1122.52ZM923.756 1057.81V995.418L992.168 1026.62V1086.99C991.311 1087.17 990.53 1087.5 989.925 1088L923.756 1057.81ZM1918 681.778L1847.07 649.436L1916.11 617.951L1916.74 617.672V552.948L1918 552.371L1916.74 551.793V487.089L1847.12 455.325L1916.19 423.82L1916.82 423.541V356.547L1843.99 389.765L1843.36 390.044V453.612L1843.31 453.593V519.451L1777.17 549.622C1776.56 549.144 1775.78 548.786 1774.92 548.607V422.406L1703.99 390.064V325.36L1636.56 294.612C1636.69 294.273 1636.76 293.935 1636.76 293.576C1636.76 293.218 1636.69 292.879 1636.56 292.56L1703.36 262.091L1703.99 261.812V198.283L1772.33 229.45V359.992L1840.99 328.666C1841.9 329.383 1843.13 329.821 1844.5 329.821C1847.22 329.821 1849.44 328.069 1849.44 325.918C1849.44 324.106 1847.87 322.592 1845.76 322.154V197.168L1916.16 165.045L1916.79 164.766V97.7724L1845.76 130.174V130.114L1773.56 163.034L1701.4 130.114V195.993L1631.17 228.036L1630.54 228.315V289.832C1628.42 290.27 1626.86 291.784 1626.86 293.596C1626.86 295.408 1628.42 296.922 1630.54 297.36V358.877L1701.47 391.219V454.768L1633.06 485.974V422.426L1562.13 390.084V388.929L1560.87 389.506L1559.61 388.929V390.084L1489.3 422.107L1488.67 422.386V489.38L1557.34 458.053C1558.24 458.77 1559.48 459.209 1560.84 459.209C1562.2 459.209 1563.46 458.77 1564.34 458.053L1630.49 488.225V618.787L1702.68 585.867L1772.35 617.632L1842.03 649.416L1773.61 680.623L1772.35 680.045V681.2L1771.09 681.778L1772.35 682.355V747.059L1843.29 779.401V839.763C1841.17 840.201 1839.61 841.715 1839.61 843.527C1839.61 845.678 1841.82 847.43 1844.55 847.43C1847.27 847.43 1849.49 845.678 1849.49 843.527C1849.49 843.168 1849.41 842.83 1849.29 842.511L1916.08 812.041L1916.71 811.763V744.769L1845.78 777.111V714.717L1918 681.778ZM1845.86 391.199L1914.27 359.992V422.386L1845.86 453.593V391.199ZM1914.22 616.497L1845.81 647.703V585.31L1914.22 554.103V616.497ZM1914.22 550.638L1845.81 519.431V457.038L1914.22 488.245V550.638ZM1844.55 521.164L1912.96 552.371L1881.88 566.55L1844.55 583.577L1778.38 553.386C1778.48 553.068 1778.58 552.729 1778.58 552.371C1778.58 552.012 1778.5 551.674 1778.38 551.355L1844.55 521.164ZM1772.38 488.245V548.587C1771.52 548.766 1770.74 549.124 1770.14 549.602L1738.2 535.025L1703.99 519.431V457.038L1738.2 472.631L1772.38 488.245ZM1774.82 229.45L1843.24 198.243V260.637L1774.82 291.843V229.45ZM1774.82 356.547V294.154L1843.24 262.947V322.154C1841.12 322.592 1839.56 324.106 1839.56 325.918C1839.56 326.276 1839.63 326.615 1839.76 326.934L1774.82 356.547ZM1845.86 132.424L1914.27 101.218V163.611L1845.86 194.818V132.424ZM1843.24 195.953L1774.82 227.16V164.766L1843.24 133.56V195.953ZM1703.92 133.56L1772.33 164.766V227.16L1703.99 195.993V194.818L1703.94 194.838V133.56H1703.92ZM1701.45 198.263V260.657L1635.3 290.828C1634.7 290.35 1633.92 289.991 1633.06 289.812V229.45L1701.45 198.263ZM1633.03 357.702V297.34C1633.89 297.161 1634.67 296.822 1635.28 296.324L1701.45 326.515V388.909L1633.03 357.702ZM1772.38 423.561V485.954L1738.17 470.361L1703.97 454.768V392.374L1772.38 423.561ZM1491.19 485.934V423.541L1559.61 392.334V451.541C1557.49 451.979 1555.93 453.493 1555.93 455.305C1555.93 455.664 1556 456.002 1556.13 456.321L1491.19 485.934ZM1562.13 451.561V392.354L1630.54 423.561V485.954L1565.63 456.361C1565.73 456.042 1565.83 455.704 1565.83 455.345C1565.81 453.513 1564.24 451.999 1562.13 451.561ZM1633.03 488.245L1701.45 457.038V519.431L1633.03 550.638V488.245ZM1633.03 552.948L1701.45 521.741V584.135L1633.03 615.342V552.948ZM1703.97 584.135V521.741L1738.17 537.335L1768.87 551.335C1768.77 551.654 1768.67 551.992 1768.67 552.351C1768.67 554.163 1770.24 555.676 1772.35 556.115V615.322L1703.97 584.135ZM1774.9 556.135C1775.76 555.955 1776.54 555.617 1777.14 555.119L1843.29 585.29V647.683L1774.87 616.477V556.135H1774.9ZM1843.29 651.149L1844.55 650.571L1845.81 651.149L1912.96 681.778L1844.55 712.985L1776.13 681.778L1843.29 651.149ZM1774.9 683.491L1843.31 714.697V777.091L1774.9 745.884V683.491ZM1914.22 748.194V810.588L1848.08 840.759C1847.47 840.281 1846.69 839.922 1845.83 839.743V779.381L1914.22 748.194ZM1494.9 358.28C1494.9 357.921 1494.82 357.583 1494.7 357.264L1561.5 326.794L1562.13 326.515V197.168L1627.87 167.176C1628.77 168.172 1630.24 168.829 1631.9 168.829C1634.62 168.829 1636.84 167.076 1636.84 164.926C1636.84 163.113 1635.28 161.6 1633.16 161.162V97.7724L1562.23 130.114V66.5657L1488.8 33.0688V100.063L1558.4 131.807L1489.93 163.034L1423.76 132.843C1423.87 132.524 1423.97 132.185 1423.97 131.827C1423.97 129.676 1421.75 127.924 1419.03 127.924C1416.3 127.924 1414.08 129.676 1414.08 131.827C1414.08 133.639 1415.65 135.153 1417.76 135.591V194.798V260.657L1348.09 292.441L1279.68 261.234L1348.72 229.749L1349.35 229.47V164.746L1350.61 164.169L1349.35 163.591V100.043L1419.66 67.9797L1420.29 67.7009V0.707031L1347.46 33.9251L1346.83 34.2039V97.7525L1278.42 66.5458V65.3907L1277.16 65.9683L1204.97 33.0489V95.7013C1204.11 95.8805 1203.33 96.239 1202.72 96.7169L1136.58 66.5458V0.707031L1065.65 33.0489V33.029L992.824 66.2471L992.193 66.5259V130.074L923.781 98.8677V97.7127L922.521 98.2902L921.261 97.7127V98.8677L851.639 130.672L779.445 97.7525V163.591L711.033 194.798V131.249L637.58 97.7525L566.647 65.4106V131.269L500.529 161.421C499.621 160.704 498.386 160.265 497.025 160.265C494.303 160.265 492.084 162.018 492.084 164.169C492.084 166.32 494.303 168.072 497.025 168.072C498.411 168.072 499.647 167.634 500.529 166.917L566.672 197.088V262.947L639.496 229.729L640.126 229.45V165.901L708.538 197.108V262.947L777.202 231.621C777.807 232.099 778.588 232.457 779.445 232.636V294.154L852.899 327.65V262.947L923.832 295.289V228.295L854.159 196.531L922.546 165.344L994.739 198.263V132.404L1063.15 101.198V228.295L992.849 260.358L992.219 260.637V327.631L1060.88 296.304C1061.79 297.021 1063.03 297.459 1064.39 297.459C1067.11 297.459 1069.33 295.707 1069.33 293.556C1069.33 291.744 1067.76 290.23 1065.65 289.792V229.45L1135.95 197.387L1136.58 197.108V133.56L1204.99 164.766V225.128C1202.87 225.567 1201.31 227.08 1201.31 228.892C1201.31 229.251 1201.39 229.589 1201.51 229.908L1134.71 260.378L1134.08 260.657V327.65L1206.28 294.731L1277.21 327.073L1348.14 294.731L1419.08 327.073L1488.75 295.289V354.496C1486.63 354.934 1485.07 356.448 1485.07 358.26C1485.07 360.411 1487.29 362.163 1490.01 362.163C1492.68 362.183 1494.9 360.43 1494.9 358.28ZM1559.61 325.34L1493.46 355.512C1492.86 355.034 1492.08 354.675 1491.22 354.496V294.154L1492.48 293.576L1559.63 262.947V325.34H1559.61ZM1420.29 198.243L1488.7 229.45V291.843L1420.29 260.637V198.243ZM1491.19 229.45L1559.61 198.243V260.637L1491.19 291.843V229.45ZM1559.61 195.953L1491.19 227.16V164.766L1559.61 133.56V195.953ZM1630.64 101.218V161.142C1628.52 161.58 1626.96 163.093 1626.96 164.906C1626.96 165.025 1626.98 165.145 1627.01 165.264L1562.25 194.798V132.424L1630.64 101.218ZM1491.32 36.5141L1559.73 67.7208V130.114L1491.32 98.9275V36.5141ZM1420.29 135.591C1421.14 135.412 1421.92 135.073 1422.53 134.575L1488.67 164.746V227.14L1420.26 195.933V135.591H1420.29ZM1277.18 195.376L1208.77 164.169L1239.85 149.989L1277.18 132.962L1345.6 164.169L1314.52 178.348L1277.18 195.376ZM1207.51 103.249C1208.37 103.07 1209.15 102.731 1209.76 102.233L1274.64 131.827L1207.51 162.456V103.249ZM1275.9 130.094L1211.02 100.501C1211.12 100.182 1211.22 99.8436 1211.22 99.4851C1211.22 99.1266 1211.14 98.7881 1211.02 98.4694L1275.92 68.8559V130.094H1275.9ZM1275.9 197.108V259.502L1211.02 229.888C1211.12 229.569 1211.22 229.231 1211.22 228.872C1211.22 227.06 1209.66 225.547 1207.54 225.109V165.901L1275.9 197.108ZM1207.51 232.636C1208.37 232.457 1209.15 232.099 1209.76 231.621L1274.64 261.214L1207.49 291.843V232.636H1207.51ZM1346.83 228.295L1278.42 259.502V197.108L1346.83 165.901V228.295ZM1349.35 35.359L1417.76 4.15231V66.5458L1349.35 97.7525V35.359ZM1346.83 100.043V162.456L1278.42 131.249V68.8559L1346.83 100.043ZM1274.64 67.1233L1209.76 96.7169C1209.15 96.239 1208.37 95.8805 1207.51 95.7013V36.4942L1274.64 67.1233ZM1134.06 4.17223V66.5657L1065.65 97.7724V35.3988L1134.06 4.17223ZM921.286 101.198V163.591L852.874 194.798V132.404L921.286 101.198ZM781.966 101.198L850.378 132.404V194.798L816.172 179.205L781.966 163.611V101.198ZM850.378 259.502L816.172 243.908L785.47 229.908C785.571 229.589 785.672 229.251 785.672 228.892C785.672 227.08 784.109 225.567 781.991 225.128V165.901L816.197 181.495L850.403 197.088V259.502H850.378ZM708.538 194.798L640.126 163.591V101.198L708.538 132.404V194.798ZM569.218 68.836L637.63 100.043V162.456L569.218 131.249V68.836ZM501.789 163.153L567.958 132.982L636.37 164.189L605.29 178.368L567.958 195.395L501.789 165.224C501.89 164.906 501.991 164.567 501.991 164.209C501.966 163.81 501.89 163.472 501.789 163.153ZM637.605 228.295L569.193 259.502V197.108L637.605 165.901V228.295ZM711.059 259.502V197.088L779.471 165.882V225.089C777.353 225.527 775.79 227.04 775.79 228.853C775.79 229.211 775.866 229.55 775.992 229.868L711.059 259.502ZM850.378 324.185L781.966 292.979V232.636C782.823 232.457 783.605 232.119 784.21 231.621L816.147 246.198L850.353 261.792V324.185H850.378ZM921.286 291.843L852.874 260.637V198.243L921.286 229.45V291.843ZM992.219 194.798L923.807 163.591V101.198L992.219 132.404V194.798ZM994.739 130.094V67.7009L1063.15 36.4942V98.8876L994.739 130.094ZM1134.06 68.8758V131.249L1065.67 162.456V100.083L1134.06 68.8758ZM994.739 324.205V261.812L1063.15 230.605V289.812C1061.03 290.25 1059.47 291.764 1059.47 293.576C1059.47 293.935 1059.55 294.273 1059.67 294.592L994.739 324.205ZM1134.06 195.953L1065.65 227.16V164.746L1134.06 133.54V195.953ZM1136.58 68.8559L1201.49 98.4495C1201.39 98.7682 1201.29 99.1067 1201.29 99.4652C1201.29 101.277 1202.85 102.791 1204.97 103.229V162.456L1136.58 131.249V68.8559ZM1136.58 261.812L1202.72 231.641C1203.33 232.119 1204.11 232.477 1204.97 232.656V293.018L1136.55 324.225V261.812H1136.58ZM1277.16 324.783L1208.75 293.576L1275.9 262.947L1277.16 262.369L1278.42 262.947L1345.57 293.576L1277.16 324.783ZM1350.61 293.576L1419.03 262.369L1487.44 293.576L1419.03 324.783L1350.61 293.576Z" fill="url(#paint0_linear_1706_4369)"/>
<defs>
<linearGradient id="paint0_linear_1706_4369" x1="337.496" y1="1356.73" x2="1254.13" y2="-317.583" gradientUnits="userSpaceOnUse">
<stop stop-color="white"/>
<stop offset="0.1074" stop-color="#F4F4F4"/>
<stop offset="0.3674" stop-color="#D2D1D1"/>
<stop offset="0.5713" stop-color="#F0F0F0"/>
<stop offset="0.705903" stop-color="#D2D1D1"/>
<stop offset="0.845266" stop-color="#F4F4F4"/>
<stop offset="0.976" stop-color="white"/>
</linearGradient>
</defs>
</svg>
