<svg width="500" height="547" viewBox="0 0 500 547" fill="none" xmlns="http://www.w3.org/2000/svg">
<path d="M0.0407257 201.694L6.9105 197.854L24.9255 187.788C36.4858 181.209 48.4197 175.107 59.8348 168.403C57.3857 166.577 54.6254 165.041 51.9273 163.464L42.6083 158.026L23.95 147.15L5.2086 136.441L0.0199471 133.473V133.266L5.33313 136.213L24.199 146.694L43.1688 157.03L52.6536 162.198C55.8083 163.92 59.0253 165.498 61.9724 167.801L62.9688 168.569L61.931 169.275C59.0461 171.226 56.0782 173.011 53.1103 174.713L44.2065 179.943L26.3783 190.341L8.48787 200.614L0.0613708 205.45V201.694H0.0407257Z" fill="url(#paint0_linear_1752_4391)"/>
<path d="M134.326 299.199L99.2714 319.683L81.6714 329.791L72.8715 334.834L68.4715 337.346C67.7659 337.761 66.9356 338.197 66.23 338.861C65.5036 339.525 64.9641 340.48 64.7773 341.434C64.2169 355.257 64.0924 368.581 63.7395 382.176L63.4697 402.474L63.3244 412.623L63.2621 417.687L63.2207 420.219C63.2207 421.07 63.4489 422.087 63.5527 423L63.8433 425.283L65.9187 424.204C67.4753 423.394 69.0734 422.626 70.5677 421.775L74.9885 419.14L83.8092 413.847L101.451 403.262L119.03 392.574L127.809 387.198L132.188 384.521C133.558 383.649 135.364 382.778 136.443 381.013C137.543 379.249 137.377 377.174 137.356 375.555L137.315 370.408L137.252 360.113L137.107 339.525C137.066 325.806 137.356 312.087 137.024 298.368V298.348H137.003C136.132 298.638 135.156 298.721 134.326 299.199ZM134.326 299.199C135.156 298.742 136.111 298.659 137.024 298.389L137.003 298.368C137.169 312.087 136.713 325.806 136.609 339.525L136.132 360.093L135.903 370.387L135.779 375.534C135.758 377.298 135.779 378.876 134.969 380.059C134.201 381.283 132.749 381.989 131.234 382.861L126.771 385.413L117.847 390.519L99.9978 400.772L82.2318 411.149L73.3489 416.338L68.9074 418.932L64.4451 421.277L66.8112 422.481C66.7281 421.734 66.4998 421.091 66.479 420.24V417.708L66.4998 412.643L66.5206 402.494L66.5621 382.196C66.5206 368.747 66.2923 354.966 66.3753 341.766C66.5828 340.334 67.7451 339.442 69.2394 338.612L73.5772 335.955L82.2318 330.663L99.562 320.099L134.326 299.199Z" fill="url(#paint1_linear_1752_4391)"/>
<path d="M136.981 289.777L136.794 249.741L136.836 229.734L136.877 219.73C136.836 218.049 137.002 216.43 136.773 214.625C136.566 212.84 135.59 211.013 134.158 209.872C122.681 202.587 111.328 195.904 99.9132 188.91L82.7283 178.657L74.1359 173.53L69.8398 170.978L65.3152 168.611L63.0738 167.449L62.9493 170.002L62.6794 175.253L62.7624 180.421L62.9285 190.757L63.2605 211.408L63.7172 232.058L63.987 242.394L64.1115 247.562C64.1323 249.264 64.236 251.298 65.2738 253.021C66.2907 254.764 68.0548 255.802 69.5077 256.611L73.9907 259.164L82.9775 264.27L100.93 274.502L136.69 295.215L136.732 295.236V295.173L136.981 289.777ZM136.981 289.777L136.69 295.173L136.732 295.152L101.241 273.983L83.6001 263.211L74.7793 257.836L70.3587 255.138C68.8643 254.266 67.5568 253.394 66.8511 252.087C66.1247 250.8 66.0417 249.243 66.0832 247.521L66.1039 242.353L66.1454 232.017L66.1662 211.345L66.0625 190.674L66.0209 180.338L65.9794 175.17L66.187 170.106L63.8209 171.476L68.2001 173.696L72.5379 176.208L81.1925 181.23L98.5226 191.255C110.041 197.855 121.913 204.392 133.162 211.055C134.366 211.989 135.113 213.275 135.362 214.811C135.611 216.306 135.528 218.049 135.611 219.689L135.86 229.692L136.338 249.7L136.981 289.777Z" fill="url(#paint2_linear_1752_4391)"/>
<path d="M118.986 305.59L127.434 300.629L131.647 298.159L134.594 296.125L99.4355 276.969L81.3791 266.965L72.3507 261.963L67.847 259.452C66.2697 258.56 65.0659 257.875 63.8414 257.895C62.6169 257.875 61.4753 258.497 59.898 259.431L55.3942 261.943L46.3867 266.965L28.3717 277.031L10.2945 286.993L1.24538 291.933L0.000152588 292.618V290.231L0.207642 290.107L9.11145 284.897L26.9396 274.52L44.8301 264.246L53.7753 259.12L58.2584 256.546C59.6282 255.758 61.5998 254.554 63.9036 254.637C66.1866 254.658 68.0546 255.903 69.4244 256.671L73.9073 259.224L82.8733 264.329L100.785 274.561L136.42 295.378L137.5 296.001L136.462 296.665L132.311 299.342L128.015 301.688L119.422 306.399L102.258 315.842L68.0753 334.957L102.03 315.448L118.986 305.59Z" fill="url(#paint3_linear_1752_4391)"/>
<path d="M0.0420609 300.359C0.58168 300.671 1.10046 301.003 1.64008 301.293L11.0212 306.773L29.7833 317.71L48.6286 328.482L58.0511 333.857C59.6285 334.729 61.1437 335.808 62.9493 336.12C64.755 336.472 66.5606 335.85 68.1172 334.957C66.5813 335.871 64.7549 336.514 62.9285 336.182C61.1021 335.891 59.5663 334.812 57.9889 333.982L48.504 328.71L29.5343 318.167L10.4608 307.79L0.934494 302.601C0.643936 302.435 0.353279 302.269 0.0627136 302.124V300.359H0.0420609Z" fill="url(#paint4_linear_1752_4391)"/>
<path d="M60.3764 338.924C58.9236 337.907 57.3047 337.098 55.7896 336.185L46.533 330.788L27.9992 320.017L9.38233 309.411L0.0634041 304.119V302.438C0.312458 302.583 0.540836 302.728 0.78989 302.873L9.94262 308.456L28.269 319.602L46.6783 330.581L55.8726 336.081C57.3877 337.015 58.9651 337.845 60.4386 338.883C61.933 339.962 62.5556 341.851 62.4933 343.615C62.4933 341.851 61.8708 339.962 60.3764 338.924Z" fill="url(#paint5_linear_1752_4391)"/>
<path d="M0.0429497 384.106L1.43347 384.936L10.2957 390.228L28.0201 400.792L45.6616 411.522L54.4823 416.898L58.8822 419.575L61.0822 420.924C61.4351 421.111 61.8917 421.443 62.0162 421.464L62.3275 421.547C62.5558 418.641 62.5143 415.673 62.5351 412.705L62.5766 402.826L62.618 383.089L62.4313 343.613L63.0955 383.089L63.552 402.826L63.8011 412.685C63.8841 415.985 64.0501 419.243 63.8011 422.605L63.7389 423.539L62.8049 423.29L61.5595 422.979C60.8539 422.751 60.6464 422.502 60.2313 422.315L57.9898 421.049L53.5067 418.496L44.5409 413.39L26.5881 403.2L8.73914 392.843L0.0221748 387.779V384.106H0.0429497Z" fill="url(#paint6_linear_1752_4391)"/>
<path d="M0.0416832 288.199L25.7359 273.38L62.0771 252.75L26.8982 274.542L0.0416832 290.897V288.199Z" fill="url(#paint7_linear_1752_4391)"/>
<path d="M61.0415 172.969L58.7793 174.152L54.2756 176.643L45.2888 181.728L27.3983 192.126L9.65318 202.731C6.45696 204.682 3.21923 206.654 0.0437775 208.646V204.828C2.70037 203.209 5.33613 201.631 8.01348 200.013L25.8832 189.511L43.8775 179.237C46.8869 177.556 49.8964 175.854 52.9473 174.235L57.5547 171.828L59.9 170.665L61.1038 170.084L62.5775 169.545L64.1133 168.984L64.0717 170.811C63.5529 198.352 62.8888 225.79 62.0378 252.792C61.7057 225.79 61.5397 199.224 61.5397 172.741L61.0415 172.969Z" fill="url(#paint8_linear_1752_4391)"/>
<path d="M61.6634 102.529L61.4144 92.4006L61.2897 87.3365C61.269 85.7591 60.7502 84.3685 59.588 83.4138C58.4672 82.4591 56.8691 81.7119 55.4163 80.861L51.0163 78.3705L42.1956 73.3686L24.5749 63.3856C16.3976 58.6743 8.24092 53.9422 0.0636024 49.2309V45.5781C8.71828 50.6838 17.3522 55.8309 26.0069 60.9366L43.3163 71.4384L51.9709 76.6893L56.3087 79.3252C57.72 80.2384 59.2351 80.944 60.6671 82.2101C62.1407 83.4553 62.8256 85.5308 62.7634 87.3157L62.7426 92.3798L62.7012 102.508L62.6388 122.765L62.8257 163.278L62.1615 122.785L61.6634 102.529Z" fill="url(#paint9_linear_1752_4391)"/>
<path d="M0.0412674 129.383L0.248764 129.507L9.06948 134.883L26.6901 145.613L44.4147 156.177L53.2768 161.469C56.224 163.213 59.1296 165.039 62.222 166.534C62.4088 165.434 62.8032 164.396 62.8032 163.275C62.8032 164.396 62.4296 165.475 62.2636 166.554V166.575L62.2428 166.554C59.1296 165.081 56.1825 163.296 53.2146 161.573L44.2901 156.385L26.4411 146.028L8.50906 135.838L0.0619164 131.043V129.383H0.0412674Z" fill="url(#paint10_linear_1752_4391)"/>
<path d="M0.0409241 32.8939L25.403 17.3279L43.0444 6.63927L51.8651 1.28458L53.8369 0.101562H58.5688C58.216 0.329864 57.8425 0.53741 57.5105 0.724202L53.0482 3.29778L44.1237 8.44493L26.254 18.7392C17.4956 23.6373 8.82002 28.6807 0.061573 33.5788V32.8939H0.0409241Z" fill="url(#paint11_linear_1752_4391)"/>
<path d="M8.59279 30.8832L0.0419006 35.8851V34.453L8.11535 30.0323L25.5077 20.4852L60.168 1.12109L25.7361 20.8795L8.59279 30.8832Z" fill="url(#paint12_linear_1752_4391)"/>
<path d="M0.0422974 44.6838C0.208328 44.7668 0.374329 44.8706 0.519608 44.9536L9.56859 49.8725L27.6875 59.7102L45.7025 69.7139L54.7099 74.7158L59.2136 77.2063C60.791 78.0988 62.0363 78.8459 63.2194 78.8459C64.4231 78.9082 65.5024 78.2441 67.1005 77.3309L71.6042 74.8195L80.591 69.7969L98.5852 59.7517C110.146 53.1932 122.1 47.0706 133.474 40.3876L132.415 39.5367C131.793 39.0386 131.004 38.6442 130.236 38.1876L125.608 35.4895L116.351 30.0933L97.838 19.3216L79.2211 8.71603L69.9231 3.40284C68.3665 2.53114 66.8514 1.57643 65.2533 0.808509C63.6344 -0.0216767 61.6627 0.165114 60.1476 1.11983C61.6627 0.14436 63.6344 -0.0631854 65.274 0.746245C66.8929 1.51417 68.4079 2.44812 69.9853 3.29906L79.3456 8.48773L98.0871 18.8858L116.911 29.1178L126.334 34.2235L131.045 36.7763C131.813 37.2121 132.643 37.5857 133.453 38.1669L135.591 39.7857L136.545 40.5121L135.549 41.2385C132.685 43.314 129.676 44.9121 126.728 46.6763L117.845 51.8857L100.038 62.263L82.1683 72.5158L73.2438 77.6422L68.7816 80.2158C67.4533 80.9837 65.4608 82.2705 63.1155 82.1252C60.791 82.0214 59.0476 80.7761 57.657 80.0082L53.1741 77.4554L44.2288 72.3497L26.3384 62.1385L8.53085 51.7611L0.0629425 46.8215V44.6838H0.0422974Z" fill="url(#paint13_linear_1752_4391)"/>
<path d="M70.5033 0.0820312C70.6901 0.185804 70.8769 0.289579 71.0429 0.393352L80.3411 5.78956L98.9371 16.582L117.616 27.2083L126.956 32.5215C129.737 34.0574 132.497 35.7593 135.32 37.1083C135.424 36.6309 135.507 36.1743 135.548 35.7593C135.611 35.1159 135.528 34.1196 135.528 33.3102L135.403 28.1631L135.133 17.848L134.718 0.102786H137.52L137.499 17.8272L137.458 28.1423L137.437 33.3102C137.416 34.2027 137.478 34.9498 137.375 36.0083C137.229 36.963 136.98 37.7725 136.835 38.5819L136.628 39.7234L135.59 39.2253C132.248 37.6272 129.343 35.6347 126.23 33.8083L117.056 28.2253L98.6881 17.0593L80.2165 6.05937L70.9807 0.559389C70.7524 0.414106 70.5033 0.268824 70.275 0.123541H70.5033V0.0820312Z" fill="url(#paint14_linear_1752_4391)"/>
<path d="M132.041 44.2711L97.6923 64.3408L80.4452 74.2615L71.8112 79.2011L67.4735 81.6917C65.9792 82.5219 64.5263 84.1615 64.2773 86.0709C63.7584 99.5822 63.6131 112.658 63.2395 125.961C63.0735 139.265 62.7207 152.403 62.783 165.81V166.64L63.4679 167.076L64.1943 167.554L64.2773 167.616H64.3188C64.3603 167.616 64.4848 167.72 64.9622 167.823C65.1075 167.844 65.2736 167.865 65.5642 167.823C65.7302 167.803 65.8754 167.761 66.0415 167.678L66.1037 167.657L66.249 167.595L66.8509 167.305L68.0962 166.682C68.9471 166.308 69.6112 165.852 70.3791 165.416L74.7791 162.78L83.5791 157.488L101.179 146.903C112.926 139.888 124.549 132.624 136.254 125.484L136.711 125.214V124.716L136.462 83.3313L136.586 41.9673V41.9258L136.545 41.9465L132.041 44.2711ZM132.041 44.2711L136.566 41.988L136.524 41.9673L135.881 83.3313L134.885 124.695L135.341 123.907C123.469 130.735 111.536 137.439 99.7262 144.391L82.0018 154.769L73.1395 159.957L68.7188 162.552C67.9924 162.967 67.2452 163.486 66.5188 163.797L65.4189 164.337L64.8792 164.606L64.7339 164.669C64.8792 164.606 65.0037 164.565 65.1283 164.544C65.3566 164.503 65.4811 164.523 65.5642 164.544C65.834 164.606 65.7509 164.606 65.6056 164.523L65.7509 164.586L65.3981 164.357L66.1037 165.623C65.8754 152.527 66.1038 139.141 66.0623 125.92C66.0207 112.72 65.8131 99.2708 65.8754 86.2577C66.1245 83.269 69.8603 82.086 72.5169 80.2388L81.0055 75.0502L97.9828 64.6936L132.041 44.2711Z" fill="url(#paint15_linear_1752_4391)"/>
<path d="M133.661 129.488L99.2706 148.686L82.0236 158.171L73.3896 162.903L69.0726 165.269L64.8595 167.905L63.7802 168.569L64.8802 169.213L100.557 190.03L118.489 200.262L127.455 205.367L131.938 207.92C133.37 208.688 135.031 209.892 137.397 210.058C139.825 210.224 141.735 208.854 143.063 208.107L147.546 205.533L156.491 200.386L174.402 190.092L192.251 179.694L201.155 174.464C204.102 172.679 207.132 171.122 209.996 168.984L210.951 168.279L210.038 167.532C207.091 165.145 203.853 163.609 200.698 161.866L191.172 156.677L172.14 146.32L153.191 135.798L143.727 130.526C142.129 129.696 140.635 128.596 138.829 128.243C137.023 127.911 135.197 128.575 133.661 129.488ZM133.661 129.488C135.218 128.596 137.044 127.973 138.829 128.368C140.614 128.741 142.087 129.841 143.686 130.692L153.087 136.068L171.912 146.819L190.632 157.735L199.993 163.194C203.106 165.02 206.364 166.722 208.98 169.005L209.021 167.552C206.302 169.483 203.147 170.998 200.159 172.679L191.089 177.639L172.991 187.622L154.955 197.709L145.948 202.752L141.444 205.264C139.825 206.177 138.725 206.924 137.584 206.82C136.442 206.799 135.093 206.011 133.536 205.16L129.012 202.648L119.984 197.647L101.906 187.643L65.6273 167.884L65.6689 169.192L69.7367 166.473L73.9915 163.983L82.4801 159.001L99.4989 149.081L133.661 129.488Z" fill="url(#paint16_linear_1752_4391)"/>
<path d="M210.555 343.8C210.597 342.036 210.203 340.085 208.77 338.881C207.359 337.74 205.719 336.972 204.204 335.997L194.948 330.476L176.435 319.434L158.025 308.227L148.831 302.623C145.739 300.776 142.792 298.804 139.45 297.185L138.267 296.625L138.163 297.912C138.039 299.655 137.769 301.419 137.769 303.142L137.748 308.31L137.707 318.625L137.686 339.276L137.79 359.927L137.852 370.242L137.873 375.41C137.914 377.008 137.707 379.145 138.869 381.242C139.45 382.259 140.322 383.047 141.173 383.608L143.476 384.957L147.939 387.551L156.863 392.74L174.712 403.096L192.665 413.287L201.652 418.392C204.682 420.053 207.525 421.921 210.804 423.291L211.863 423.726L211.925 422.606C212.091 419.285 212.029 415.985 211.904 412.726L211.655 402.889L211.199 383.193L210.555 343.8ZM210.555 343.8L210.742 383.193L210.701 402.889L210.659 412.747C210.68 416.026 210.638 419.326 210.389 422.543L211.51 421.879C208.459 420.509 205.574 418.496 202.627 416.774L193.806 411.398L176.165 400.668L158.42 390.104L149.558 384.811L145.116 382.176L142.999 380.889C142.439 380.495 142.003 380.079 141.733 379.602C141.173 378.627 141.193 377.174 141.173 375.368L141.09 370.2L140.924 359.885L140.571 339.234L140.093 318.583L139.824 308.268L139.699 303.1C139.658 301.378 139.865 299.717 139.948 298.036L138.682 298.763C141.878 300.174 144.971 302.125 148.105 303.868L157.465 309.202L176.206 319.87L194.844 330.704L204.163 336.121C205.678 337.076 207.338 337.823 208.75 338.944C210.14 340.106 210.555 342.036 210.555 343.8Z" fill="url(#paint17_linear_1752_4391)"/>
<path d="M138.766 294.714C141.9 293.386 144.972 291.643 147.919 289.962L156.885 284.877L174.838 274.686L192.728 264.371L201.674 259.203L206.136 256.63C207.506 255.799 209.436 254.99 210.598 253.039C211.76 251.088 211.532 248.971 211.594 247.373L211.698 242.205L211.823 231.89L212.072 211.26L212.321 190.63L212.445 180.315C212.466 176.87 212.632 173.487 212.279 169.875L212.072 167.551L209.934 168.485C206.572 169.938 203.749 171.805 200.781 173.549L191.919 178.841L174.195 189.426L156.47 200.011L147.608 205.303L143.187 207.981C141.838 208.853 139.929 209.703 138.787 211.654C137.646 213.647 137.936 215.743 137.895 217.32L137.916 222.488L137.936 232.803L137.999 253.433L138.206 274.064L138.31 284.379C138.393 287.824 138.351 291.331 138.766 294.714ZM138.766 294.714C138.497 291.248 138.725 287.865 138.829 284.399L139.099 274.084L139.638 253.454L140.053 232.824L140.261 222.509L140.365 217.341C140.406 215.556 140.323 214 141.008 212.962C141.631 211.862 143.021 211.177 144.557 210.285L149.04 207.711L157.944 202.502L175.73 192.062L193.517 181.622L202.421 176.392C205.389 174.67 208.357 172.781 211.325 171.515L208.959 170.124C209.311 173.362 209.187 176.87 209.187 180.294L209.145 190.609L209.042 211.26L208.938 231.89L208.896 242.205L208.917 247.373C208.917 249.179 209.021 250.694 208.377 251.773C207.796 252.894 206.406 253.62 204.87 254.554L200.449 257.232L191.628 262.586L173.987 273.296L156.408 284.13L147.629 289.547C144.744 291.394 141.921 293.22 138.766 294.714Z" fill="url(#paint18_linear_1752_4391)"/>
<path d="M210.68 162.176L210.493 122.036L210.535 101.967L210.576 91.9421C210.556 90.2402 210.639 88.6628 210.535 86.8572C210.473 85.093 209.539 83.1006 208.024 82.0214L173.695 61.0384L156.469 50.7441L147.856 45.597C145.013 43.8536 142.128 42.1517 139.014 40.6574L136.752 39.5781L136.648 42.0479L136.42 47.2988L136.503 52.446L136.669 62.7611L137.001 83.3912L137.458 104.021L137.728 114.336L137.852 119.483C137.852 121.185 137.997 123.219 139.056 124.921C140.094 126.644 141.858 127.661 143.311 128.449L147.794 131.002L156.76 136.108L174.692 146.298L210.39 166.97L210.431 166.991V166.949L210.68 162.176ZM210.68 162.176L210.369 166.949L210.41 166.929L174.982 145.8L157.362 135.07L148.562 129.695L144.162 127.017C142.667 126.146 141.36 125.274 140.633 123.987C139.886 122.7 139.803 121.165 139.845 119.463L139.865 114.295L139.907 103.98L139.928 83.3497L139.824 62.7195L139.782 52.4045L139.762 47.2573L139.928 42.1932L137.562 43.5838C140.509 44.9328 143.394 46.6139 146.279 48.3158L154.954 53.3592L172.305 63.446L207.069 83.2874C209.746 84.9478 209.082 88.6628 209.29 91.9628L209.539 101.987L210.016 122.057L210.68 162.176Z" fill="url(#paint19_linear_1752_4391)"/>
<path d="M139.846 0.0820312C139.68 12.3273 139.576 24.5933 139.306 36.8385L173.157 17.3084L203.542 0.0820312H204.04L174.319 18.4706L138.622 40.18L136.691 41.3423L136.671 39.0592C136.588 26.0668 136.754 13.0744 136.795 0.0820312H139.846Z" fill="url(#paint20_linear_1752_4391)"/>
<path d="M208.232 0.935602L173.675 20.2374L156.324 29.7845L147.649 34.5374C144.785 36.1977 141.796 37.5053 139.056 39.56L138.247 40.1619L139.036 40.826C141.796 43.109 144.826 44.7071 147.794 46.4505L156.719 51.6599L174.568 62.0788L192.52 72.3316L201.486 77.458L205.969 80.0108C207.36 80.7787 209.145 82.0447 211.532 82.0655C212.715 82.0655 213.815 81.7127 214.749 81.2561C215.662 80.7787 216.305 80.4051 217.073 79.9485L221.556 77.3749L230.522 72.2278L248.433 61.9335L266.282 51.5354L275.186 46.3052C278.133 44.4996 281.184 42.9845 283.986 40.743L285.044 39.8921L283.924 39.2487C277.677 35.7204 271.346 32.3996 265.079 28.9751L246.213 18.7431L227.45 8.34501L218.069 3.15635C216.492 2.32616 214.977 1.37145 213.337 0.624282C211.739 -0.205904 209.767 -0.0191109 208.232 0.935602ZM208.232 0.935602C209.767 0.00164375 211.739 -0.164394 213.358 0.645037C214.977 1.3922 216.492 2.36767 218.049 3.23937L227.367 8.55255L246.026 19.1789L264.58 29.9506C270.745 33.5619 276.992 37.0902 283.093 40.7845L283.031 39.2902C280.395 41.3034 277.199 42.7977 274.211 44.4788L265.141 49.4392L247.043 59.4014L229.007 69.4882L219.979 74.5315L215.475 77.0429L213.296 78.2674C212.673 78.5787 212.113 78.7447 211.552 78.7655C210.432 78.807 209.145 78.0806 207.588 77.1881L203.064 74.6768L194.035 69.6542L175.958 59.6297L157.798 49.7505L148.728 44.8109C145.698 43.1713 142.585 41.6147 139.97 39.56L139.949 40.826C142.419 38.8336 145.49 37.36 148.272 35.6374L156.802 30.6355L173.903 20.6525L208.232 0.935602Z" fill="url(#paint21_linear_1752_4391)"/>
<path d="M217.945 0.0830185C218.256 0.249056 218.547 0.435848 218.837 0.62264L228.135 6.01885L246.732 16.832L265.411 27.4791L274.75 32.7923C277.552 34.3697 280.333 36.0301 283.197 37.4206C283.343 36.9225 283.488 36.4659 283.488 36.1131L283.426 33.6018L283.301 28.4339L283.031 18.098L282.616 0.0415102H285.439L285.397 18.0565L285.356 28.3923L285.335 33.5602L285.314 36.2168C285.19 37.3376 284.796 38.0848 284.609 38.8527L284.36 39.9112L283.364 39.4131C280.064 37.7942 277.096 35.8433 274.024 33.9753L264.85 28.3716L246.483 17.1848L228.011 6.16413L218.775 0.643395C218.422 0.415094 218.069 0.207546 217.717 0H217.945V0.0830185Z" fill="url(#paint22_linear_1752_4391)"/>
<path d="M281.391 43.3578L246.441 63.7804L228.882 73.8671L220.103 78.8898L215.703 81.4011C214.977 81.8162 214.146 82.2728 213.482 82.9784C212.777 83.6633 212.299 84.6595 212.154 85.6143C211.677 99.3538 211.49 112.658 211.158 126.21L210.888 146.446L210.743 156.574L210.68 161.638L210.639 164.171C210.639 165.021 210.846 166.018 210.95 166.931L211.22 169.235L213.316 168.155C214.873 167.346 216.492 166.62 217.986 165.748L222.407 163.112L231.227 157.82L248.89 147.235L266.49 136.546L275.269 131.171L279.669 128.493C281.059 127.622 282.865 126.729 283.923 124.965C285.023 123.18 284.837 121.125 284.837 119.507L284.795 114.359L284.733 104.065L284.588 83.4765C284.546 69.7577 284.816 56.0181 284.505 42.2993V42.2786H284.484C283.446 42.6314 282.346 42.8182 281.391 43.3578ZM281.391 43.3578C282.346 42.8182 283.446 42.6522 284.463 42.2786L284.442 42.2578C284.588 55.9766 284.152 69.6954 284.027 83.435L283.55 104.024L283.301 114.318L283.176 119.465C283.156 121.229 283.176 122.807 282.367 124.01C281.599 125.235 280.167 125.941 278.652 126.812L274.189 129.365L265.244 134.471L247.395 144.744L229.609 155.122L220.726 160.31L216.284 162.905L211.801 165.229L214.167 166.454C214.084 165.706 213.877 165.021 213.856 164.212V161.68V156.616L213.877 146.488L213.918 126.252L213.69 85.9048C213.835 84.4727 214.935 83.518 216.388 82.6878L220.705 80.052L229.339 74.7596L246.627 64.2162L281.391 43.3578Z" fill="url(#paint23_linear_1752_4391)"/>
<path d="M358.786 161.532L358.599 121.538L358.64 101.531L358.682 91.5271C358.64 89.8667 358.806 88.2271 358.557 86.4214C358.329 84.6365 357.291 82.8309 355.859 81.7309C344.403 74.4875 333.071 67.763 321.656 60.7479L287.286 40.2631L285.024 38.9141L284.858 41.5707C284.754 43.3348 284.567 45.1197 284.526 46.8631L284.609 52.031L284.754 62.3876L285.107 83.0592L285.563 103.731L285.833 114.067L285.958 119.235C286.02 120.874 285.916 122.887 286.933 124.714C287.95 126.582 289.86 127.412 291.25 128.221L295.754 130.774L304.741 135.88L322.714 146.091L340.605 156.448L349.55 161.636C352.538 163.338 355.444 165.227 358.64 166.534L358.682 166.555V166.514L358.786 161.532ZM358.786 161.532L358.64 166.514L358.682 166.493C355.506 165.144 352.642 163.214 349.654 161.491L340.771 156.199L323.025 145.593L305.363 134.842L296.522 129.467L292.101 126.789C290.586 125.876 289.154 125.129 288.552 123.842C287.888 122.576 287.95 120.978 287.95 119.214L287.971 114.046L288.012 103.71V83.0384L287.909 62.3668L287.867 52.031L287.826 46.8631C287.867 45.1612 288.012 43.5216 288.095 41.8405L285.646 43.148L320.244 63.197C331.763 69.797 343.573 76.3554 354.863 83.0177C356.088 83.9309 356.876 85.1969 357.146 86.712C357.416 88.2063 357.312 89.929 357.395 91.5893L357.644 101.593L358.101 121.601L358.786 161.532Z" fill="url(#paint24_linear_1752_4391)"/>
<path d="M287.763 0.0832531C287.597 12.1002 287.493 24.1379 287.223 36.1548L287.742 35.9058C288.51 35.5322 289.278 35.1793 290.025 34.7643L294.591 32.3775L303.682 27.4379L321.759 17.2888L339.795 7.03606C343.738 4.73229 347.702 2.42853 351.625 0.0625H352.248C348.304 2.71909 344.278 5.25116 340.251 7.78322L322.589 18.7002L304.719 29.2643L295.712 34.4322L291.146 36.9435C290.399 37.3586 289.61 37.7529 288.821 38.168L287.618 38.7699L286.144 39.3303L284.629 39.9114L284.608 38.0435C284.546 25.3832 284.691 12.7228 284.733 0.0625H287.763V0.0832531Z" fill="url(#paint25_linear_1752_4391)"/>
<path d="M355.112 1.70322L320.95 20.7975L303.806 30.2201C298.12 33.4163 292.288 36.3012 286.725 39.8087L285.729 40.4314L286.705 41.0955C288.157 42.071 289.569 43.1087 291.042 44.0427L295.505 46.637L304.45 51.8464L322.34 62.2653L340.314 72.518L349.301 77.6444L353.804 80.1973C355.216 80.9859 357.063 82.2105 359.408 82.1897C361.795 82.169 363.58 80.8407 364.97 80.1143L369.453 77.5407L378.419 72.3935L396.372 62.0785L414.263 51.6804L423.187 46.4502C426.155 44.7068 429.164 43.0465 431.987 40.8257L433.087 39.954L431.904 39.3106L393.736 18.4937L374.746 7.92961L365.24 2.65794C363.663 1.807 362.127 0.748508 360.301 0.457943C358.453 0.125869 356.648 0.790018 355.112 1.70322ZM355.112 1.70322C356.668 0.810773 358.474 0.167379 360.28 0.499453C362.085 0.790018 363.601 1.86926 365.178 2.74095L374.621 8.13716L393.487 18.9088L430.991 40.8465L430.908 39.3314C428.23 41.3446 425.159 42.9427 422.128 44.5823L413.038 49.5427L394.919 59.5464L376.842 69.6331L367.814 74.6765L363.289 77.2086C361.691 78.101 360.487 78.9312 359.346 78.8897C358.163 78.9312 356.917 78.2671 355.361 77.3746L350.836 74.8633L341.787 69.8407L323.689 59.8162L305.488 49.937L296.397 44.9974L291.852 42.5276C290.378 41.6559 288.988 40.7012 287.535 39.788L287.514 41.0748C292.869 37.4635 298.68 34.371 304.263 31.0088L321.178 21.1503L355.112 1.70322Z" fill="url(#paint26_linear_1752_4391)"/>
<path d="M366.363 0.0820312C366.57 0.206559 366.799 0.331088 367.006 0.455615L376.325 5.87258L394.942 16.6857L413.663 27.3536L423.023 32.6876C425.783 34.2442 428.523 35.863 431.345 37.2328L431.532 35.8838C431.636 35.1159 431.574 34.3479 431.553 33.4347L431.428 28.2668L431.159 17.9518L430.744 0.0820312H433.545L433.525 17.931L433.483 28.2668L433.462 33.4347C433.442 34.2442 433.504 35.1989 433.338 36.1328L432.923 38.6857L432.715 39.8894L431.636 39.3498C428.357 37.7309 425.368 35.78 422.276 33.9328L413.081 28.3291L394.672 17.1423L376.18 6.10088L366.923 0.580144C366.653 0.414107 366.383 0.248068 366.114 0.0820312H366.363Z" fill="url(#paint27_linear_1752_4391)"/>
<path d="M361.047 83.9323C360.196 110.913 359.532 138.351 359.013 165.892L358.971 167.698L360.486 167.158L361.981 166.619L363.184 166.058C363.973 165.685 364.783 165.29 365.551 164.896L370.158 162.489C373.23 160.87 376.218 159.168 379.249 157.487L397.243 147.213L415.092 136.711C421.028 133.121 426.922 129.655 432.754 125.67L433.439 125.213V124.342L433.667 82.9568C433.709 69.155 433.895 55.3739 433.812 41.5721L433.792 39.2891L431.862 40.4513L396.226 62.1814L361.047 83.9323ZM361.047 83.9323L397.388 63.3229L433.211 42.6513L431.28 41.5306C430.948 55.3324 430.886 69.1135 430.679 82.9153L430.16 124.3L430.845 122.972C425.324 126.811 419.347 130.402 413.494 133.992L395.748 144.598L377.879 154.975L368.892 160.04L364.388 162.53C363.641 162.945 362.873 163.319 362.126 163.713L361.005 164.273L360.092 164.668L361.566 165.934C361.545 138.808 361.4 111.598 361.047 83.9323Z" fill="url(#paint28_linear_1752_4391)"/>
<path d="M435.847 0.0820312C435.681 12.3273 435.578 24.5725 435.308 36.8177L469.179 17.2876L499.502 0.0820312H500L470.342 18.4291L434.644 40.1592L432.734 41.3215L432.713 39.0385C432.651 26.0461 432.776 13.0744 432.838 0.0820312H435.847Z" fill="url(#paint29_linear_1752_4391)"/>
<path d="M141.276 463.699L175.832 444.398L193.183 434.871L201.859 430.118C204.744 428.5 207.691 427.088 210.451 425.075L211.364 424.411L210.451 423.788C209.019 422.813 207.608 421.734 206.134 420.841L201.672 418.247L192.747 413.058L174.878 402.66L156.925 392.428L147.938 387.322L143.455 384.77C142.065 384.002 140.3 382.736 137.893 382.715C136.731 382.715 135.61 383.047 134.676 383.504C133.721 384.002 133.119 384.354 132.331 384.811L127.848 387.385L118.882 392.532L100.97 402.826L83.1214 413.224L74.2178 418.454C71.2499 420.218 68.2404 421.837 65.397 423.996L64.2762 424.847L65.4592 425.49L103.212 446.037L122.016 456.456L131.417 461.666C132.995 462.496 134.51 463.471 136.17 464.198C137.789 464.924 139.761 464.654 141.276 463.699ZM141.276 463.699C139.74 464.633 137.789 464.882 136.15 464.115C134.531 463.388 133.016 462.392 131.438 461.541L122.099 456.228L103.419 445.581L84.8441 434.788L66.2895 423.934L66.3517 425.428C69.0705 423.477 72.163 421.92 75.1932 420.26L84.263 415.3L102.361 405.337L120.397 395.251L129.425 390.207L133.929 387.696L136.087 386.492C136.71 386.181 137.27 386.015 137.831 386.015C138.951 385.994 140.238 386.72 141.816 387.613L146.34 390.124L155.368 395.126L173.446 405.13L191.606 414.988L200.696 419.907L205.242 422.377C206.736 423.207 208.106 424.203 209.538 425.117V423.851C207.006 425.822 204.038 427.379 201.215 429.06L192.685 434.062L175.583 444.024L141.276 463.699Z" fill="url(#paint30_linear_1752_4391)"/>
<path d="M0.040657 545.952L28.8481 528.663L46.0536 518.161L54.6461 512.889L58.9423 510.254C60.4159 509.403 61.6403 508.552 61.8894 507.161C62.1177 505.854 61.9309 503.923 61.9724 502.325L61.9309 497.282L61.8686 487.195L61.7233 467.042L61.7649 446.89L61.7856 436.824L61.8063 431.78C61.7855 430.95 61.8271 430.016 61.8271 429.144L61.5988 429.248L59.3366 430.39L54.7914 432.776L45.7422 437.737L27.7688 447.927L9.87833 458.263C6.57834 460.214 3.27836 462.165 0.0198822 464.157V461.708C2.88402 459.861 5.76886 458.056 8.65375 456.229C14.5065 452.576 20.3801 448.944 26.3159 445.437L44.2064 434.997L53.2348 429.912L57.8214 427.443C58.5686 427.027 59.3573 426.633 60.1875 426.26L61.3913 425.678C61.9309 425.471 62.4913 425.284 63.0309 425.118L64.5667 424.641L64.8781 426.509C65.2309 428.543 64.9819 430.016 65.0234 431.759L64.961 436.803L64.8157 446.89L64.5253 467.042L64.0686 487.195L63.8403 497.282L63.7158 502.325C63.612 504.069 63.7988 505.542 63.446 507.535C62.9894 509.589 61.0592 510.772 59.6894 511.499L55.3102 514.01L46.5517 519.012L29.0763 529.057L0.0198822 546.035V545.952H0.040657Z" fill="url(#paint31_linear_1752_4391)"/>
<path d="M0.0419464 459.777L28.5172 443.402L45.2247 433.647L60.8737 424.412C59.8153 423.644 58.819 422.834 57.6152 422.212L53.07 419.742L43.9794 414.802L25.7984 404.902L7.70041 394.857L0.0419464 390.602V387.012L0.187244 387.095L9.1739 392.221L27.1267 402.515L45.0172 412.934L53.9624 418.144L58.4247 420.759C59.9398 421.589 61.2681 422.834 62.7002 423.851L63.6548 424.536L62.6378 425.096L28.7455 443.776L0.0419464 459.84V459.777Z" fill="url(#paint32_linear_1752_4391)"/>
<defs>
<linearGradient id="paint0_linear_1752_4391" x1="52.834" y1="191.036" x2="-0.943187" y2="136.416" gradientUnits="userSpaceOnUse">
<stop stop-color="#EE6D22"/>
<stop offset="1" stop-color="#EE6D22" stop-opacity="0"/>
</linearGradient>
<linearGradient id="paint1_linear_1752_4391" x1="125.438" y1="399.936" x2="37.4627" y2="340.076" gradientUnits="userSpaceOnUse">
<stop stop-color="#EE6D22"/>
<stop offset="1" stop-color="#EE6D22" stop-opacity="0"/>
</linearGradient>
<linearGradient id="paint2_linear_1752_4391" x1="125.018" y1="269.719" x2="36.6079" y2="209.846" gradientUnits="userSpaceOnUse">
<stop stop-color="#EE6D22"/>
<stop offset="1" stop-color="#EE6D22" stop-opacity="0"/>
</linearGradient>
<linearGradient id="paint3_linear_1752_4391" x1="115.362" y1="318.918" x2="67.3929" y2="223.281" gradientUnits="userSpaceOnUse">
<stop stop-color="#EE6D22"/>
<stop offset="1" stop-color="#EE6D22" stop-opacity="0"/>
</linearGradient>
<linearGradient id="paint4_linear_1752_4391" x1="57.1571" y1="329.1" x2="37.0451" y2="284.695" gradientUnits="userSpaceOnUse">
<stop stop-color="#EE6D22"/>
<stop offset="1" stop-color="#EE6D22" stop-opacity="0"/>
</linearGradient>
<linearGradient id="paint5_linear_1752_4391" x1="52.4457" y1="335.392" x2="26.1355" y2="288.93" gradientUnits="userSpaceOnUse">
<stop stop-color="#EE6D22"/>
<stop offset="1" stop-color="#EE6D22" stop-opacity="0"/>
</linearGradient>
<linearGradient id="paint6_linear_1752_4391" x1="53.643" y1="407.579" x2="-5.75824" y2="352.258" gradientUnits="userSpaceOnUse">
<stop stop-color="#EE6D22"/>
<stop offset="1" stop-color="#EE6D22" stop-opacity="0"/>
</linearGradient>
<linearGradient id="paint7_linear_1752_4391" x1="52.0894" y1="283.28" x2="28.6191" y2="238.826" gradientUnits="userSpaceOnUse">
<stop stop-color="#EE6D22"/>
<stop offset="1" stop-color="#EE6D22" stop-opacity="0"/>
</linearGradient>
<linearGradient id="paint8_linear_1752_4391" x1="53.7981" y1="236.057" x2="-8.22697" y2="180.83" gradientUnits="userSpaceOnUse">
<stop stop-color="#EE6D22"/>
<stop offset="1" stop-color="#EE6D22" stop-opacity="0"/>
</linearGradient>
<linearGradient id="paint9_linear_1752_4391" x1="52.721" y1="139.775" x2="-25.8877" y2="90.9543" gradientUnits="userSpaceOnUse">
<stop stop-color="#EE6D22"/>
<stop offset="1" stop-color="#EE6D22" stop-opacity="0"/>
</linearGradient>
<linearGradient id="paint10_linear_1752_4391" x1="52.6985" y1="159.148" x2="30.2984" y2="115.123" gradientUnits="userSpaceOnUse">
<stop stop-color="#EE6D22"/>
<stop offset="1" stop-color="#EE6D22" stop-opacity="0"/>
</linearGradient>
<linearGradient id="paint11_linear_1752_4391" x1="49.1459" y1="26.8939" x2="29.4069" y2="-13.2989" gradientUnits="userSpaceOnUse">
<stop stop-color="#EE6D22"/>
<stop offset="1" stop-color="#EE6D22" stop-opacity="0"/>
</linearGradient>
<linearGradient id="paint12_linear_1752_4391" x1="50.4877" y1="28.9433" x2="29.8553" y2="-12.6185" gradientUnits="userSpaceOnUse">
<stop stop-color="#EE6D22"/>
<stop offset="1" stop-color="#EE6D22" stop-opacity="0"/>
</linearGradient>
<linearGradient id="paint13_linear_1752_4391" x1="114.568" y1="65.7843" x2="64.892" y2="-30.6587" gradientUnits="userSpaceOnUse">
<stop stop-color="#EE6D22"/>
<stop offset="1" stop-color="#EE6D22" stop-opacity="0"/>
</linearGradient>
<linearGradient id="paint14_linear_1752_4391" x1="126.694" y1="31.8077" x2="102.892" y2="-15.2176" gradientUnits="userSpaceOnUse">
<stop stop-color="#EE6D22"/>
<stop offset="1" stop-color="#EE6D22" stop-opacity="0"/>
</linearGradient>
<linearGradient id="paint15_linear_1752_4391" x1="124.807" y1="142.703" x2="37.3745" y2="82.9117" gradientUnits="userSpaceOnUse">
<stop stop-color="#EE6D22"/>
<stop offset="1" stop-color="#EE6D22" stop-opacity="0"/>
</linearGradient>
<linearGradient id="paint16_linear_1752_4391" x1="187.257" y1="193.715" x2="139.767" y2="94.3417" gradientUnits="userSpaceOnUse">
<stop stop-color="#EE6D22"/>
<stop offset="1" stop-color="#EE6D22" stop-opacity="0"/>
</linearGradient>
<linearGradient id="paint17_linear_1752_4391" x1="200.057" y1="398.346" x2="111.929" y2="338.312" gradientUnits="userSpaceOnUse">
<stop stop-color="#EE6D22"/>
<stop offset="1" stop-color="#EE6D22" stop-opacity="0"/>
</linearGradient>
<linearGradient id="paint18_linear_1752_4391" x1="200.49" y1="269.322" x2="112.217" y2="208.998" gradientUnits="userSpaceOnUse">
<stop stop-color="#EE6D22"/>
<stop offset="1" stop-color="#EE6D22" stop-opacity="0"/>
</linearGradient>
<linearGradient id="paint19_linear_1752_4391" x1="198.724" y1="141.549" x2="110.495" y2="81.6569" gradientUnits="userSpaceOnUse">
<stop stop-color="#EE6D22"/>
<stop offset="1" stop-color="#EE6D22" stop-opacity="0"/>
</linearGradient>
<linearGradient id="paint20_linear_1752_4391" x1="193.19" y1="33.1033" x2="167.867" y2="-15.0701" gradientUnits="userSpaceOnUse">
<stop stop-color="#EE6D22"/>
<stop offset="1" stop-color="#EE6D22" stop-opacity="0"/>
</linearGradient>
<linearGradient id="paint21_linear_1752_4391" x1="261.41" y1="65.6979" x2="213.795" y2="-33.6207" gradientUnits="userSpaceOnUse">
<stop stop-color="#EE6D22"/>
<stop offset="1" stop-color="#EE6D22" stop-opacity="0"/>
</linearGradient>
<linearGradient id="paint22_linear_1752_4391" x1="274.536" y1="31.9416" x2="250.576" y2="-15.4093" gradientUnits="userSpaceOnUse">
<stop stop-color="#EE6D22"/>
<stop offset="1" stop-color="#EE6D22" stop-opacity="0"/>
</linearGradient>
<linearGradient id="paint23_linear_1752_4391" x1="272.901" y1="143.879" x2="184.884" y2="83.9677" gradientUnits="userSpaceOnUse">
<stop stop-color="#EE6D22"/>
<stop offset="1" stop-color="#EE6D22" stop-opacity="0"/>
</linearGradient>
<linearGradient id="paint24_linear_1752_4391" x1="346.83" y1="141.067" x2="258.501" y2="81.2152" gradientUnits="userSpaceOnUse">
<stop stop-color="#EE6D22"/>
<stop offset="1" stop-color="#EE6D22" stop-opacity="0"/>
</linearGradient>
<linearGradient id="paint25_linear_1752_4391" x1="341.355" y1="31.9542" x2="317.441" y2="-15.3336" gradientUnits="userSpaceOnUse">
<stop stop-color="#EE6D22"/>
<stop offset="1" stop-color="#EE6D22" stop-opacity="0"/>
</linearGradient>
<linearGradient id="paint26_linear_1752_4391" x1="409.362" y1="65.8521" x2="362.002" y2="-33.4938" gradientUnits="userSpaceOnUse">
<stop stop-color="#EE6D22"/>
<stop offset="1" stop-color="#EE6D22" stop-opacity="0"/>
</linearGradient>
<linearGradient id="paint27_linear_1752_4391" x1="422.689" y1="31.9405" x2="398.768" y2="-15.2545" gradientUnits="userSpaceOnUse">
<stop stop-color="#EE6D22"/>
<stop offset="1" stop-color="#EE6D22" stop-opacity="0"/>
</linearGradient>
<linearGradient id="paint28_linear_1752_4391" x1="421.781" y1="142.057" x2="332.852" y2="81.673" gradientUnits="userSpaceOnUse">
<stop stop-color="#EE6D22"/>
<stop offset="1" stop-color="#EE6D22" stop-opacity="0"/>
</linearGradient>
<linearGradient id="paint29_linear_1752_4391" x1="489.164" y1="33.0867" x2="463.842" y2="-15.0454" gradientUnits="userSpaceOnUse">
<stop stop-color="#EE6D22"/>
<stop offset="1" stop-color="#EE6D22" stop-opacity="0"/>
</linearGradient>
<linearGradient id="paint30_linear_1752_4391" x1="187.683" y1="448.258" x2="140.194" y2="348.92" gradientUnits="userSpaceOnUse">
<stop stop-color="#EE6D22"/>
<stop offset="1" stop-color="#EE6D22" stop-opacity="0"/>
</linearGradient>
<linearGradient id="paint31_linear_1752_4391" x1="54.5972" y1="521.794" x2="-26.6546" y2="471.084" gradientUnits="userSpaceOnUse">
<stop stop-color="#EE6D22"/>
<stop offset="1" stop-color="#EE6D22" stop-opacity="0"/>
</linearGradient>
<linearGradient id="paint32_linear_1752_4391" x1="53.4131" y1="445.297" x2="-0.84195" y2="390.102" gradientUnits="userSpaceOnUse">
<stop stop-color="#EE6D22"/>
<stop offset="1" stop-color="#EE6D22" stop-opacity="0"/>
</linearGradient>
</defs>
</svg>
